<?xml version="1.0" encoding="UTF-8"?>
<svg version="1.1" xmlns="http://www.w3.org/2000/svg" width="512" height="512">
<path d="M0 0 C0.93336182 -0.00571014 1.86672363 -0.01142029 2.82836914 -0.01730347 C3.84039398 -0.01842133 4.85241882 -0.01953918 5.89511108 -0.02069092 C6.9705719 -0.02565582 8.04603271 -0.03062073 9.15408325 -0.03573608 C12.7101811 -0.05033374 16.2662343 -0.05715655 19.82235718 -0.06268311 C22.29992677 -0.06843751 24.77749635 -0.07419521 27.25506592 -0.07995605 C32.45181485 -0.09045991 37.64854834 -0.09630629 42.8453064 -0.09979248 C49.48610967 -0.10526901 56.12670191 -0.12928189 62.76745033 -0.15776443 C67.88745712 -0.17644238 73.00741488 -0.18159922 78.12745285 -0.18312836 C80.57452899 -0.18614489 83.02160447 -0.19413946 85.468647 -0.20731354 C88.9026248 -0.22447792 92.33610712 -0.22246801 95.77011108 -0.21600342 C97.26993027 -0.22982559 97.26993027 -0.22982559 98.80004883 -0.243927 C111.97378763 -0.16672186 124.62006872 4.04319721 134.34188843 13.13653564 C155.88693984 36.11493767 148.22079468 65.45500039 148.22079468 96.14044189 C200.69079468 96.14044189 253.16079468 96.14044189 307.22079468 96.14044189 C307.22079468 117.59044189 307.22079468 139.04044189 307.22079468 161.14044189 C296.99079468 161.14044189 286.76079468 161.14044189 276.22079468 161.14044189 C276.22079468 218.89044189 276.22079468 276.64044189 276.22079468 336.14044189 C254.77079468 336.14044189 233.32079468 336.14044189 211.22079468 336.14044189 C211.22079468 315.35044189 211.22079468 294.56044189 211.22079468 273.14044189 C195.38079468 273.14044189 179.54079468 273.14044189 163.22079468 273.14044189 C163.22079468 293.93044189 163.22079468 314.72044189 163.22079468 336.14044189 C152.99079468 336.14044189 142.76079468 336.14044189 132.22079468 336.14044189 C132.22079468 315.35044189 132.22079468 294.56044189 132.22079468 273.14044189 C78.76079468 273.14044189 25.30079468 273.14044189 -29.77920532 273.14044189 C-29.77920532 293.93044189 -29.77920532 314.72044189 -29.77920532 336.14044189 C-40.00920532 336.14044189 -50.23920532 336.14044189 -60.77920532 336.14044189 C-60.77920532 315.35044189 -60.77920532 294.56044189 -60.77920532 273.14044189 C-76.61920532 273.14044189 -92.45920532 273.14044189 -108.77920532 273.14044189 C-108.77920532 293.93044189 -108.77920532 314.72044189 -108.77920532 336.14044189 C-130.22920532 336.14044189 -151.67920532 336.14044189 -173.77920532 336.14044189 C-173.77920532 278.39044189 -173.77920532 220.64044189 -173.77920532 161.14044189 C-184.00920532 161.14044189 -194.23920532 161.14044189 -204.77920532 161.14044189 C-204.77920532 139.69044189 -204.77920532 118.24044189 -204.77920532 96.14044189 C-152.30920532 96.14044189 -99.83920532 96.14044189 -45.77920532 96.14044189 C-45.77920532 77.66044189 -45.77920532 59.18044189 -45.77920532 40.14044189 C-41.1328353 25.03973932 -41.1328353 25.03973932 -35.77920532 18.14044189 C-34.66545532 16.59356689 -34.66545532 16.59356689 -33.52920532 15.01544189 C-24.73880818 5.82548124 -12.82846433 0.0472849 0 0 Z " fill="#5A7BA0" transform="translate(204.77920532226563,175.85955810546875)"/>
<path d="M0 0 C105.6 0 211.2 0 320 0 C320 36.96 320 73.92 320 112 C304.16 112 288.32 112 272 112 C272 132.79 272 153.58 272 175 C261.77 175 251.54 175 241 175 C241 154.21 241 133.42 241 112 C187.54 112 134.08 112 79 112 C79 132.79 79 153.58 79 175 C68.77 175 58.54 175 48 175 C48 154.21 48 133.42 48 112 C32.16 112 16.32 112 0 112 C0 75.04 0 38.08 0 0 Z " fill="#2D3E53" transform="translate(96,337)"/>
<path d="M0 0 C1.36300539 0.00063635 1.36300539 0.00063635 2.75354624 0.00128555 C9.10400833 0.00430014 15.45447004 0.00780096 21.80493164 0.01171875 C22.60342997 0.0122097 23.40192831 0.01270065 24.22462356 0.01320648 C40.6289235 0.02369237 57.03320488 0.0441164 73.4375 0.0625 C73.4375 21.5125 73.4375 42.9625 73.4375 65.0625 C63.2075 65.0625 52.9775 65.0625 42.4375 65.0625 C42.4375 122.8125 42.4375 180.5625 42.4375 240.0625 C20.9875 240.0625 -0.4625 240.0625 -22.5625 240.0625 C-22.5625 182.3125 -22.5625 124.5625 -22.5625 65.0625 C-75.3625 65.0625 -128.1625 65.0625 -182.5625 65.0625 C-182.5625 43.9425 -182.5625 22.8225 -182.5625 1.0625 C-169.70840945 0.88258771 -156.85444279 0.71263759 -144 0.5625 C-142.47602034 0.54468412 -142.47602034 0.54468412 -140.9212532 0.52650833 C-93.94795096 -0.01452269 -46.97575697 -0.02257602 0 0 Z " fill="#435D7A" transform="translate(438.5625,271.9375)"/>
<path d="M0 0 C52.8 0 105.6 0 160 0 C160 36.96 160 73.92 160 112 C133.27 112 106.54 112 79 112 C79 132.79 79 153.58 79 175 C68.77 175 58.54 175 48 175 C48 154.21 48 133.42 48 112 C32.16 112 16.32 112 0 112 C0 75.04 0 38.08 0 0 Z " fill="#435D7A" transform="translate(96,337)"/>
<path d="M0 0 C0.93336182 -0.00571014 1.86672363 -0.01142029 2.82836914 -0.01730347 C3.84039398 -0.01842133 4.85241882 -0.01953918 5.89511108 -0.02069092 C7.50830231 -0.02813828 7.50830231 -0.02813828 9.15408325 -0.03573608 C12.7101811 -0.05033374 16.2662343 -0.05715655 19.82235718 -0.06268311 C22.29992677 -0.06843751 24.77749635 -0.07419521 27.25506592 -0.07995605 C32.45181485 -0.09045991 37.64854834 -0.09630629 42.8453064 -0.09979248 C49.48610967 -0.10526901 56.12670191 -0.12928189 62.76745033 -0.15776443 C67.88745712 -0.17644238 73.00741488 -0.18159922 78.12745285 -0.18312836 C80.57452899 -0.18614489 83.02160447 -0.19413946 85.468647 -0.20731354 C88.9026248 -0.22447792 92.33610712 -0.22246801 95.77011108 -0.21600342 C97.26993027 -0.22982559 97.26993027 -0.22982559 98.80004883 -0.243927 C111.97378763 -0.16672186 124.62006872 4.04319721 134.34188843 13.13653564 C156.08524132 36.32643176 148.22079468 66.27960713 148.22079468 97.14044189 C84.20079468 97.14044189 20.18079468 97.14044189 -45.77920532 97.14044189 C-45.77920532 31.027581 -45.77920532 31.027581 -35.77920532 18.14044189 C-35.03670532 17.10919189 -34.29420532 16.07794189 -33.52920532 15.01544189 C-24.73880818 5.82548124 -12.82846433 0.0472849 0 0 Z " fill="#0EA7EC" transform="translate(204.77920532226563,175.85955810546875)"/>
<path d="M0 0 C21.12 0 42.24 0 64 0 C64 57.75 64 115.5 64 175 C42.55 175 21.1 175 -1 175 C-1.10267368 133.82785303 -0.88698251 92.67005769 -0.5 51.5 C-0.48804218 50.22746746 -0.47608437 48.95493492 -0.46376419 47.64384079 C-0.31407601 31.76250955 -0.15768623 15.88125602 0 0 Z " fill="#A5CFE7" transform="translate(417,337)"/>
<path d="M0 0 C21.12 0 42.24 0 64 0 C64.17044888 17.16663681 64.33868662 34.33327722 64.5 51.5 C64.51187725 52.76358967 64.5237545 54.02717934 64.53599167 55.3290596 C64.90916767 95.22274108 65.09949052 135.10430099 65 175 C43.55 175 22.1 175 0 175 C0 117.25 0 59.5 0 0 Z " fill="#BAE8FE" transform="translate(31,337)"/>
<path d="M0 0 C3.13076326 1.22858353 4.88471579 3.18544094 7.2507019 5.5693512 C7.73896454 6.05717575 8.22722717 6.54500031 8.73028564 7.04760742 C10.33903265 8.65844096 11.93689856 10.27963198 13.53488159 11.90113831 C14.6495212 13.02137434 15.76482593 14.14094895 16.88076782 15.2598877 C19.81369831 18.20426323 22.73750756 21.157537 25.65951538 24.11274719 C28.64376963 27.12770949 31.63655248 30.13417928 34.62863159 33.14137268 C40.49639269 39.04129196 46.3545461 44.95063779 52.20675659 50.86598206 C55.95224769 49.31052124 58.27708969 47.00811943 61.09542847 44.12501526 C61.56751236 43.64519196 62.03959625 43.16536865 62.52598572 42.67100525 C63.54681577 41.63256806 64.56541644 40.59193554 65.58201599 39.54935646 C67.19067672 37.90122092 68.80680035 36.26076317 70.42538452 34.62237549 C75.02499147 29.96475757 79.61466125 25.29752726 84.18966675 20.61573792 C86.99117258 17.7499229 89.80463233 14.89632049 92.62608337 12.0501461 C93.69928716 10.96265473 94.76779103 9.87050474 95.83149719 8.77372169 C97.31582207 7.24386664 98.81479761 5.7299574 100.31808472 4.21876526 C101.16761719 3.35209732 102.01714966 2.48542938 102.89242554 1.59249878 C105.20675659 -0.13401794 105.20675659 -0.13401794 107.36917114 -0.02790833 C110.08964851 1.29546336 111.85807744 3.18367446 113.97238159 5.33863831 C114.86183472 6.2377594 115.75128784 7.13688049 116.66769409 8.06324768 C117.58808472 9.00877502 118.50847534 9.95430237 119.45675659 10.92848206 C120.40137332 11.88815179 121.34667854 12.84714434 122.29269409 13.80543518 C124.60424832 16.15237034 126.90851999 18.50601596 129.20675659 20.86598206 C124.01915077 27.15111209 118.33248394 32.86909364 112.55831909 38.61207581 C111.53534353 39.63318254 110.51259131 40.65451305 109.49005127 41.67605591 C106.81922299 44.34309558 104.14540377 47.00711642 101.47091675 49.67048645 C98.73388923 52.39722056 95.99974758 55.12684511 93.26535034 57.85621643 C87.91528112 63.19561295 82.56204386 68.53181857 77.20675659 73.86598206 C78.77619343 77.64899432 81.13776937 80.03854753 84.02365112 82.90992737 C84.5116217 83.39819 84.99959229 83.88645264 85.50234985 84.38951111 C87.11005934 85.99583167 88.7247276 87.59495919 90.33956909 89.19410706 C91.45815894 90.30896522 92.57630688 91.42426693 93.69403076 92.53999329 C96.63234984 95.47068814 99.57662614 98.39532627 102.52218628 101.31874084 C105.52873922 104.30480931 108.52961541 107.29657065 111.53097534 110.28785706 C117.41736345 116.15281661 123.31005759 122.01138938 129.20675659 127.86598206 C127.54813779 131.3894285 125.64018351 133.66500083 122.85519409 136.41285706 C122.00441284 137.25719299 121.15363159 138.10152893 120.27706909 138.97145081 C119.38761597 139.84414612 118.49816284 140.71684143 117.58175659 141.61598206 C116.68456909 142.50414612 115.78738159 143.39231018 114.86300659 144.30738831 C112.64868655 146.49815175 110.42983224 148.68410969 108.20675659 150.86598206 C104.42374432 149.29654522 102.03419112 146.93496928 99.16281128 144.04908752 C98.67454865 143.56111694 98.18628601 143.07314636 97.68322754 142.57038879 C96.07690697 140.96267931 94.47777946 139.34801105 92.87863159 137.73316956 C91.76377343 136.61457971 90.64847172 135.49643176 89.53274536 134.37870789 C86.6020505 131.44038881 83.67741237 128.49611251 80.7539978 125.55055237 C77.76792934 122.54399943 74.776168 119.54312324 71.78488159 116.54176331 C65.91992203 110.6553752 60.06134927 104.76268106 54.20675659 98.86598206 C50.42374432 100.43541889 48.03419112 102.79699483 45.16281128 105.68287659 C44.67454865 106.17084717 44.18628601 106.65881775 43.68322754 107.16157532 C42.07690697 108.76928481 40.47777946 110.38395306 38.87863159 111.99879456 C37.76377343 113.1173844 36.64847172 114.23553235 35.53274536 115.35325623 C32.6020505 118.2915753 29.67741237 121.2358516 26.7539978 124.18141174 C23.76792934 127.18796468 20.776168 130.18884087 17.78488159 133.19020081 C11.91992203 139.07658891 6.06134927 144.96928305 0.20675659 150.86598206 C-3.31668985 149.20736326 -5.59226218 147.29940897 -8.34011841 144.51441956 C-9.18445435 143.66363831 -10.02879028 142.81285706 -10.89871216 141.93629456 C-11.77140747 141.04684143 -12.64410278 140.15738831 -13.54324341 139.24098206 C-14.8754895 137.89520081 -14.8754895 137.89520081 -16.23464966 136.52223206 C-18.4254131 134.30791202 -20.61137104 132.08905771 -22.79324341 129.86598206 C-21.22380657 126.08296979 -18.86223063 123.69341658 -15.97634888 120.82203674 C-15.4883783 120.33377411 -15.00040771 119.84551147 -14.49765015 119.342453 C-12.88994066 117.73613244 -11.2752724 116.13700493 -9.66043091 114.53785706 C-8.54184106 113.42299889 -7.42369312 112.30769718 -6.30596924 111.19197083 C-3.36765016 108.26127597 -0.42337386 105.33663784 2.52218628 102.41322327 C5.52873922 99.4271548 8.52961541 96.43539347 11.53097534 93.44410706 C17.41736345 87.5791475 23.31005759 81.72057474 29.20675659 75.86598206 C27.63731976 72.08296979 25.27574382 69.69341658 22.38986206 66.82203674 C21.90189148 66.33377411 21.4139209 65.84551147 20.91116333 65.342453 C19.30345384 63.73613244 17.68878558 62.13700493 16.07394409 60.53785706 C14.95535425 59.42299889 13.8372063 58.30769718 12.71948242 57.19197083 C9.78116335 54.26127597 6.83688704 51.33663784 3.8913269 48.41322327 C0.88477397 45.4271548 -2.11610222 42.43539347 -5.11746216 39.44410706 C-11.00385027 33.5791475 -16.89654441 27.72057474 -22.79324341 21.86598206 C-18.40494191 16.70090076 -13.90930474 11.71093118 -9.16824341 6.86598206 C-8.51339966 6.17375549 -7.85855591 5.48152893 -7.18386841 4.76832581 C-6.54707153 4.11992737 -5.91027466 3.47152893 -5.25418091 2.80348206 C-4.68489868 2.21438049 -4.11561646 1.62527893 -3.52908325 1.01832581 C-1.79324341 -0.13401794 -1.79324341 -0.13401794 0 0 Z " fill="#FF2F88" transform="translate(202.79324340820313,0.1340179443359375)"/>
<path d="M0 0 C1.13634888 0.00012085 2.27269775 0.0002417 3.44348145 0.00036621 C4.62704224 0.00548218 5.81060303 0.01059814 7.0300293 0.01586914 C8.12585327 0.01687622 9.22167725 0.0178833 10.35070801 0.0189209 C14.43523203 0.02414389 18.51974112 0.03810516 22.60424805 0.05102539 C31.74112305 0.07165039 40.87799805 0.09227539 50.29174805 0.11352539 C50.29174805 32.12352539 50.29174805 64.13352539 50.29174805 97.11352539 C18.28174805 97.11352539 -13.72825195 97.11352539 -46.70825195 97.11352539 C-46.79075195 87.97665039 -46.87325195 78.83977539 -46.95825195 69.42602539 C-46.99466797 66.56857666 -47.03108398 63.71112793 -47.06860352 60.76708984 C-47.08030326 58.46200305 -47.09049202 56.15690788 -47.09887695 53.85180664 C-47.12957275 52.10546936 -47.12957275 52.10546936 -47.16088867 50.32385254 C-47.16599136 38.12459535 -44.21378922 27.78601568 -36.70825195 18.11352539 C-35.96575195 17.08227539 -35.22325195 16.05102539 -34.45825195 14.98852539 C-25.32470743 5.43981975 -13.24324658 -0.02989446 0 0 Z " fill="#33BFFE" transform="translate(205.708251953125,175.886474609375)"/>
<path d="M0 0 C19.74947235 7.37400987 47.48674673 39.28139832 56.46444702 57.89787292 C60.77524752 68.8665908 60.81936514 80.63726131 56.54452515 91.62297058 C45.1490086 115.30385888 19.88495565 134.18005165 0.2124939 150.82609558 C-3.31095254 149.16747678 -5.58652488 147.2595225 -8.3343811 144.47453308 C-9.17871704 143.62375183 -10.02305298 142.77297058 -10.89297485 141.89640808 C-11.76567017 141.00695496 -12.63836548 140.11750183 -13.5375061 139.20109558 C-14.8697522 137.85531433 -14.8697522 137.85531433 -16.22891235 136.48234558 C-18.4196758 134.26802554 -20.60563374 132.04917123 -22.7875061 129.82609558 C-21.21806927 126.04308331 -18.85649333 123.65353011 -15.97061157 120.78215027 C-15.48264099 120.29388763 -14.99467041 119.805625 -14.49191284 119.30256653 C-12.88420335 117.69624596 -11.2695351 116.09711845 -9.6546936 114.49797058 C-8.53610376 113.38311242 -7.41795581 112.26781071 -6.30023193 111.15208435 C-3.36191286 108.22138949 -0.41763656 105.29675136 2.52792358 102.37333679 C5.53447652 99.38726833 8.53535271 96.39550699 11.53671265 93.40422058 C17.42310075 87.53926102 23.3157949 81.68068826 29.2124939 75.82609558 C27.64305706 72.04308331 25.28148112 69.65353011 22.39559937 66.78215027 C21.90762878 66.29388763 21.4196582 65.805625 20.91690063 65.30256653 C19.30919115 63.69624596 17.69452289 62.09711845 16.0796814 60.49797058 C14.96109155 59.38311242 13.8429436 58.26781071 12.72521973 57.15208435 C9.78690065 54.22138949 6.84262435 51.29675136 3.89706421 48.37333679 C0.89051127 45.38726833 -2.11036492 42.39550699 -5.11172485 39.40422058 C-10.99811296 33.53926102 -16.8908071 27.68068826 -22.7875061 21.82609558 C-18.39920461 16.66101428 -13.90356743 11.67104471 -9.1625061 6.82609558 C-8.50766235 6.13386902 -7.8528186 5.44164246 -7.1781311 4.72843933 C-6.54133423 4.08004089 -5.90453735 3.43164246 -5.2484436 2.76359558 C-4.67916138 2.17449402 -4.10987915 1.58539246 -3.52334595 0.97843933 C-1.7875061 -0.17390442 -1.7875061 -0.17390442 0 0 Z " fill="#FF6785" transform="translate(202.78750610351563,0.1739044189453125)"/>
<path d="M0 0 C10.23 0 20.46 0 31 0 C31 21.12 31 42.24 31 64 C20.77 64 10.54 64 0 64 C0 42.88 0 21.76 0 0 Z " fill="#A5CEE6" transform="translate(337,448)"/>
<path d="M0 0 C10.23 0 20.46 0 31 0 C31 21.12 31 42.24 31 64 C20.77 64 10.54 64 0 64 C0 42.88 0 21.76 0 0 Z " fill="#B9E8FE" transform="translate(144,448)"/>
</svg>
