<?xml version="1.0" encoding="UTF-8"?>
<svg version="1.1" xmlns="http://www.w3.org/2000/svg" width="512" height="512">
<path d="M0 0 C1.51883789 0.29801514 1.51883789 0.29801514 3.06835938 0.60205078 C22.48430245 4.48465773 40.99362045 10.39810562 59.1875 18.1875 C59.92419922 18.49606934 60.66089844 18.80463867 61.41992188 19.12255859 C65.69953388 21.03418623 68.54835822 22.82524048 71 27 C70.89945312 28.23943359 70.89945312 28.23943359 70.796875 29.50390625 C70.72324933 32.01634214 70.72324933 32.01634214 72.32617188 33.26904297 C74.25039571 34.60346838 76.21435068 35.78045349 78.25 36.9375 C78.93191406 37.36095703 79.61382812 37.78441406 80.31640625 38.22070312 C82.19150282 39.3220948 83.94664172 40.28296354 86 41 C88.15507157 40.33393242 88.15507157 40.33393242 90 39 C95.33557364 38.30848636 97.91024005 39.82918066 102.1875 42.9375 C102.74993408 43.34355469 103.31236816 43.74960937 103.8918457 44.16796875 C109.44336759 48.22193262 114.77968345 52.52882253 120 57 C121.12535156 57.95712891 121.12535156 57.95712891 122.2734375 58.93359375 C135.76885554 70.74784196 148.43698695 83.48744855 159 98 C159.85649066 99.14994831 160.71326433 100.29968589 161.5703125 101.44921875 C167.6109414 109.64089526 172.97005071 118.15645078 178 127 C178.36448242 127.63180176 178.72896484 128.26360352 179.10449219 128.91455078 C194.03507977 155.0002508 203.51240561 184.33558667 208 214 C208.17732666 215.12462646 208.35465332 216.24925293 208.53735352 217.40795898 C210.18875708 228.96190444 210.35670897 240.40465547 210.3125 252.0625 C210.30976578 253.55659393 210.30976578 253.55659393 210.30697632 255.08087158 C210.26223255 269.59330287 209.80469043 283.72309519 207 298 C206.83902832 298.89557617 206.67805664 299.79115234 206.51220703 300.71386719 C197.70340196 349.40345832 174.2601479 394.42879928 140 430 C139.36787598 430.65935547 138.73575195 431.31871094 138.08447266 431.99804688 C128.94002521 441.48630305 119.64265991 450.2262044 109 458 C107.84894983 458.85806152 106.69790823 459.71613451 105.546875 460.57421875 C99.46118808 465.05854375 93.21894106 469.21296802 86.75 473.125 C86.10554932 473.51574707 85.46109863 473.90649414 84.79711914 474.30908203 C80.25413007 477 80.25413007 477 78 477 C78.05800781 477.82242187 78.11601562 478.64484375 78.17578125 479.4921875 C78.53706167 488.43129743 77.43264721 495.03038128 71.35546875 501.84375 C65.00192684 507.69531907 58.67516325 509.45121741 50.25309753 509.39440918 C49.39662622 509.40050028 48.54015491 509.40659139 47.65772992 509.41286707 C44.80057341 509.42945685 41.94386452 509.42472699 39.08666992 509.41992188 C37.03291869 509.42726458 34.97917158 509.4358514 32.9254303 509.44558716 C27.3550665 509.46779182 21.78485067 509.47073431 16.21444869 509.46883965 C11.5600069 509.46871988 6.90559638 509.47728648 2.2511633 509.48561716 C-8.73272554 509.50484791 -19.71653839 509.50773641 -30.70043945 509.50097656 C-42.02093123 509.49433756 -53.34109702 509.51719543 -64.66152269 509.55429029 C-74.38999647 509.58500863 -84.11836551 509.59634494 -93.84688681 509.59245348 C-99.65319525 509.59038801 -105.45925007 509.59583418 -111.26551247 509.62034607 C-116.72807501 509.64264535 -122.19010853 509.64070852 -127.65267372 509.62041855 C-129.65289218 509.61701405 -131.65314647 509.62207335 -133.6533165 509.63640213 C-154.76169309 509.77713536 -154.76169309 509.77713536 -162.87919331 502.25972748 C-169.53963925 495.27264718 -170.32738577 488.97100857 -170.10546875 479.59765625 C-170.07066406 478.74042969 -170.03585938 477.88320313 -170 477 C-170.78375 476.80277344 -171.5675 476.60554688 -172.375 476.40234375 C-177.39465637 474.46047237 -181.5598598 471.57486796 -186 468.5625 C-187.39786743 467.6202356 -187.39786743 467.6202356 -188.82397461 466.65893555 C-201.05243908 458.33809089 -212.34232017 449.26486821 -223 439 C-223.65935547 438.36787598 -224.31871094 437.73575195 -224.99804688 437.08447266 C-234.48630305 427.94002521 -243.2262044 418.64265991 -251 408 C-251.85806152 406.84894983 -252.71613451 405.69790823 -253.57421875 404.546875 C-259.61236829 396.35569386 -264.97095521 387.84195895 -270 379 C-270.36448242 378.36819824 -270.72896484 377.73639648 -271.10449219 377.08544922 C-286.03585402 350.99839649 -295.50920268 321.66499753 -300 292 C-300.17732666 290.88117432 -300.35465332 289.76234863 -300.53735352 288.60961914 C-302.21876346 276.88764016 -302.35733932 265.26500982 -302.3125 253.4375 C-302.31034485 252.41676392 -302.3081897 251.39602783 -302.30596924 250.34436035 C-302.25630099 235.70170002 -301.94579688 221.39011101 -299 207 C-298.70996094 205.50509033 -298.70996094 205.50509033 -298.4140625 203.97998047 C-288.98337882 156.25169789 -267.01385226 111.95595549 -233 77 C-232.30745117 76.28166992 -231.61490234 75.56333984 -230.90136719 74.82324219 C-221.16227659 64.75554457 -211.41278841 55.15062776 -200 47 C-199.38092773 46.55253418 -198.76185547 46.10506836 -198.12402344 45.64404297 C-166.28930047 22.75534085 -130.61058848 7.10570175 -92 0 C-91.19933105 -0.16081055 -90.39866211 -0.32162109 -89.57373047 -0.48730469 C-61.50672956 -5.977321 -27.99815756 -5.74943715 0 0 Z " fill="#EEF9FD" transform="translate(302,3)"/>
<path d="M0 0 C1.51883789 0.29801514 1.51883789 0.29801514 3.06835938 0.60205078 C22.48430245 4.48465773 40.99362045 10.39810562 59.1875 18.1875 C59.92419922 18.49606934 60.66089844 18.80463867 61.41992188 19.12255859 C65.7362979 21.05060807 68.37437913 22.9061478 71 27 C71.625 29.5 71.625 29.5 71 32 C67.4356203 35.99906015 67.4356203 35.99906015 65 37 C59.25178704 36.73935799 54.70802747 34.76833772 49.5625 32.4375 C31.89981757 24.76157146 13.98299116 19.20583941 -5 16 C-6.16144531 15.78730469 -7.32289063 15.57460938 -8.51953125 15.35546875 C-44.24632976 8.98059713 -82.48692435 12.44917126 -117 23 C-117.83225098 23.25088379 -118.66450195 23.50176758 -119.52197266 23.76025391 C-164.07330678 37.47582004 -206.7781423 66.6976177 -235 104 C-235.63881104 104.83217041 -235.63881104 104.83217041 -236.29052734 105.68115234 C-243.22271789 114.73649518 -249.43710298 124.04558206 -255 134 C-255.43844238 134.78117188 -255.87688477 135.56234375 -256.32861328 136.3671875 C-265.64372142 153.12459394 -272.88202572 170.50550203 -278 189 C-278.32484375 190.09699219 -278.6496875 191.19398438 -278.984375 192.32421875 C-290.45438214 233.8368215 -289.9312596 282.09892051 -276 323 C-275.5361792 324.39726318 -275.5361792 324.39726318 -275.06298828 325.82275391 C-265.56748696 354.20099563 -252.626267 379.55215123 -234 403 C-233.56252441 403.55461914 -233.12504883 404.10923828 -232.67431641 404.68066406 C-221.71345272 418.4559731 -209.06808609 431.39967742 -195 442 C-194.44666992 442.42442383 -193.89333984 442.84884766 -193.32324219 443.28613281 C-178.6338177 454.85704148 -178.6338177 454.85704148 -162 463 C-160.15929441 460.21312902 -158.32871822 457.41974873 -156.5 454.625 C-155.97535156 453.8309375 -155.45070312 453.036875 -154.91015625 452.21875 C-154.41386719 451.45820313 -153.91757813 450.69765625 -153.40625 449.9140625 C-152.94541016 449.2123291 -152.48457031 448.5105957 -152.00976562 447.78759766 C-150.83605668 446.05194936 -150.83605668 446.05194936 -151 444 C-153.07952284 442.66960273 -155.1602162 441.45294542 -157.3125 440.25 C-172.86162504 431.19579387 -186.60300839 420.16695925 -199.40527344 407.56396484 C-200.71351801 406.28095585 -202.04506616 405.02174954 -203.3828125 403.76953125 C-209.65821403 397.81171077 -214.8064104 390.89304346 -220 384 C-220.43634766 383.42443359 -220.87269531 382.84886719 -221.32226562 382.25585938 C-240.5580911 356.71511993 -253.97355026 326.37149046 -260 295 C-260.16516113 294.14535156 -260.33032227 293.29070312 -260.50048828 292.41015625 C-263.11346112 278.0347524 -263.28426464 263.62679905 -263.3125 249.0625 C-263.31801376 247.67425522 -263.31801376 247.67425522 -263.32363892 246.25796509 C-263.32919589 243.57929741 -263.31832685 240.9012635 -263.30078125 238.22265625 C-263.30154663 237.42655945 -263.30231201 236.63046265 -263.30310059 235.8102417 C-263.22489673 229.44803938 -262.8179356 222.82789983 -259.3125 217.375 C-257 216 -257 216 -253.4375 216.0625 C-250.03018962 216.99176647 -249.03970064 217.28655014 -247 220 C-246.64596558 222.17147827 -246.64596558 222.17147827 -246.67529297 224.72412109 C-246.67874725 225.68297211 -246.68220154 226.64182312 -246.6857605 227.62973022 C-246.70438141 228.66715363 -246.72300232 229.70457703 -246.7421875 230.7734375 C-246.75211227 232.38552597 -246.75211227 232.38552597 -246.76223755 234.03018188 C-246.78567549 237.47874289 -246.82930443 240.92666803 -246.875 244.375 C-247.39217217 294.38484034 -235.50567795 340.77719401 -203 380 C-202.51354004 380.58797363 -202.02708008 381.17594727 -201.52587891 381.78173828 C-184.07702755 402.74363244 -163.69407409 418.63039393 -140 432 C-139.65195312 430.98873047 -139.65195312 430.98873047 -139.296875 429.95703125 C-137.66416596 426.23425793 -135.53074076 423.04101023 -133.25 419.6875 C-132.80406494 419.02540527 -132.35812988 418.36331055 -131.89868164 417.68115234 C-123.95534929 405.95534929 -123.95534929 405.95534929 -121 403 C-117.14202645 402.63604023 -114.84011302 402.43992465 -111.5625 404.625 C-109.49175835 407.77252731 -109.57425082 409.2560407 -110 413 C-111.23486414 415.74134658 -112.83814095 418.18742256 -114.5 420.6875 C-114.90992188 421.33138672 -115.31984375 421.97527344 -115.7421875 422.63867188 C-118.20824016 426.46105349 -120.82863285 430.14166597 -123.53515625 433.796875 C-129.04966449 441.32537188 -134.11786878 449.15043095 -139.22973633 456.95532227 C-140.95552407 459.59001666 -142.68545166 462.22195653 -144.41601562 464.85351562 C-145.51586336 466.52848934 -146.61548138 468.20361392 -147.71484375 469.87890625 C-148.23143051 470.66527969 -148.74801727 471.45165314 -149.28025818 472.26185608 C-149.75487991 472.98698898 -150.22950165 473.71212189 -150.71850586 474.45922852 C-151.13627792 475.09667496 -151.55404999 475.7341214 -151.98448181 476.3908844 C-154.12103665 479.77631241 -154.38692954 481.97593276 -154 486 C-151.7241177 490.22481746 -151.7241177 490.22481746 -148 493 C-145.34115239 493.10658064 -142.70799075 493.15221277 -140.04850769 493.15390015 C-139.21728199 493.1582824 -138.38605629 493.16266465 -137.52964193 493.1671797 C-134.72833653 493.18059557 -131.92706261 493.18675278 -129.12573242 493.19287109 C-127.12372189 493.20076979 -125.12171279 493.2090386 -123.1197052 493.21765137 C-116.53164027 493.24389585 -109.94356889 493.2591803 -103.35546875 493.2734375 C-101.0902487 493.27879597 -98.82502869 493.28417347 -96.55980873 493.28956985 C-87.13984701 493.31120112 -77.71988702 493.32993935 -68.29990673 493.34119225 C-54.78514629 493.35744119 -41.27067292 493.39063924 -27.75602072 493.44759309 C-18.2612886 493.48624662 -8.76663342 493.50581944 0.72817534 493.51111281 C6.40308454 493.51477223 12.07768772 493.52685646 17.75251198 493.55921555 C23.09020136 493.58921572 28.42739827 493.59563672 33.76515388 493.58383179 C35.72555626 493.58361039 37.68598095 493.59197027 39.64630508 493.60948563 C42.32065313 493.63208243 44.99320104 493.62392709 47.66755676 493.60800171 C48.44538177 493.6218838 49.22320677 493.63576588 50.02460223 493.65006864 C54.05207938 493.59087747 55.79452974 493.16759744 58.9582777 490.58699989 C61.94634314 486.8009194 62.47984103 484.83417701 62 480 C60.66323232 477.38973818 59.3256351 475.09591278 57.70703125 472.67578125 C57.25656937 471.98003494 56.80610748 471.28428864 56.34199524 470.56745911 C54.91026652 468.36757215 53.45798843 466.18255488 52 464 C51.32514557 462.98217438 51.32514557 462.98217438 50.63665771 461.94378662 C47.85895244 457.75841678 45.04822042 453.59625773 42.22229004 449.44332886 C40.62153972 447.09055181 39.02470065 444.73515906 37.42871094 442.37915039 C35.1331599 438.99091008 32.83642055 435.60348098 30.53857422 432.21679688 C24.60004213 423.46311715 18.67078476 414.70319304 12.75 405.9375 C12.15348633 405.05468353 11.55697266 404.17186707 10.94238281 403.26229858 C0.00817966 387.07094144 -10.76443875 370.77543892 -21.45996094 354.42553711 C-30.18640495 338.42139785 -30.18640495 338.42139785 -43 327 C-46.74103319 326.59188729 -49.06431449 326.42496077 -52.31323242 328.42163086 C-56.10075379 332.05634355 -58.72081444 336.22806814 -61.55078125 340.62890625 C-62.16841843 341.57378403 -62.7860556 342.5186618 -63.42240906 343.49217224 C-65.39365754 346.51056244 -67.35360514 349.53608094 -69.3125 352.5625 C-90.98281144 385.90247438 -90.98281144 385.90247438 -96 389 C-99.11032079 388.87304813 -101.20078043 388.47953174 -103.875 386.875 C-105.63868288 383.93552853 -105.63463855 381.27506069 -105 378 C-103.33578262 374.50328704 -101.18948585 371.37630379 -99.0078125 368.18359375 C-98.38784393 367.25007584 -97.76787537 366.31655792 -97.12911987 365.35475159 C-95.14261955 362.37207791 -93.13404918 359.40501899 -91.125 356.4375 C-89.81107837 354.46904714 -88.49856378 352.49965433 -87.1875 350.52929688 C-62.44309312 313.44922344 -62.44309312 313.44922344 -51 311 C-42.82916356 309.89583291 -36.79312312 311.38083781 -30 316 C-21.91436208 323.21127127 -16.38451583 333.19277066 -10.54470825 342.19894409 C-7.35009243 347.12459581 -4.13081341 352.03409966 -0.9140625 356.9453125 C-0.25743118 357.94906418 0.39920013 358.95281586 1.07572937 359.98698425 C7.76724646 370.2020972 14.58933382 380.32700123 21.4375 390.4375 C22.56731956 392.1075987 23.69704117 393.77776368 24.82666016 395.44799805 C26.93518937 398.56491602 29.04437491 401.68138793 31.15429688 404.79736328 C31.63519775 405.50757629 32.11609863 406.21778931 32.61157227 406.94952393 C33.50722299 408.27225058 34.40289219 409.59496473 35.29858398 410.91766357 C37.76807383 414.56575124 40.23014843 418.21871833 42.6875 421.875 C43.25202881 422.70700928 43.81655762 423.53901855 44.39819336 424.39624023 C48 429.77029879 48 429.77029879 48 432 C74.22329432 417.73261494 97.34035383 398.61316708 115.375 374.75 C115.87523682 374.08838867 116.37547363 373.42677734 116.89086914 372.74511719 C119.93103906 368.64635795 122.55205402 364.47823292 125 360 C124.28207275 359.73010254 123.56414551 359.46020508 122.82446289 359.18212891 C119.9971963 357.99882656 117.45496715 356.6294746 114.80859375 355.0859375 C113.79531006 354.49772217 112.78202637 353.90950684 111.73803711 353.3034668 C110.64885986 352.66707275 109.55968262 352.03067871 108.4375 351.375 C106.09409675 350.01372062 103.75035481 348.65303829 101.40625 347.29296875 C100.498964 346.76589073 100.498964 346.76589073 99.573349 346.22816467 C95.27776142 343.73450892 90.97100072 341.26111685 86.65625 338.80078125 C86.05575836 338.45828842 85.45526672 338.11579559 84.83657837 337.76292419 C81.85392189 336.06262451 78.86975689 334.36501503 75.88427734 332.66967773 C70.7605137 329.75293455 65.65755806 326.81917505 60.6328125 323.734375 C59.84720947 323.25524658 59.06160645 322.77611816 58.25219727 322.2824707 C56.84624716 321.4188985 55.44752878 320.54337604 54.05834961 319.65307617 C51.36726982 318.00278107 49.57244869 316.97193045 46.37109375 317.12890625 C44.7582945 317.72141734 43.15910909 318.35206383 41.57421875 319.015625 C35.64468851 321.28306297 28.94746675 321.49353296 22.97900391 319.23535156 C18.3272581 317.02065594 13.96562306 314.31311329 9.59423828 311.59619141 C4.80932267 308.6521129 -0.0745841 305.87515539 -4.9375 303.0625 C-10.74355023 299.70395006 -16.52333332 296.33872161 -22.15625 292.6953125 C-31.45661623 286.78081113 -38.19064196 284.00702465 -49.25 284.07421875 C-57.32057378 283.91448864 -63.44700887 280.44324471 -69.2421875 275 C-76.0757067 267.22497371 -77.35855393 259.69754708 -77.28515625 249.62109375 C-76.81728007 243.67970714 -75.22167634 238.2305733 -70.95005798 233.94184875 C-68.22738969 229.83444355 -68.46177082 226.57023896 -68.53344727 221.74682617 C-68.53114105 220.82260361 -68.52883484 219.89838104 -68.52645874 218.94615173 C-68.52383229 216.94311471 -68.53025967 214.94004984 -68.54471016 212.93706322 C-68.56661514 209.76269765 -68.56287301 206.58928416 -68.55223083 203.41487122 C-68.53057025 195.52977734 -68.54789574 187.64489482 -68.57373047 179.75982666 C-68.59516119 173.09761006 -68.59703414 166.43600453 -68.57081413 159.77379799 C-68.56647342 156.6537486 -68.59107526 153.53476937 -68.61634827 150.4148407 C-68.61107477 148.49034148 -68.60435046 146.56584552 -68.59594727 144.64135742 C-68.61085709 143.78030396 -68.62576691 142.91925049 -68.64112854 142.03210449 C-68.5606706 135.16398773 -66.32248997 130.27911148 -61.415658 125.43634319 C-59.38984065 123.70029761 -57.39042823 122.19521411 -55 121 C-54.505 86.35 -54.505 86.35 -54 51 C-98.82673835 55.98074871 -137.86153042 66.87919269 -173 96 C-173.88196045 96.72968994 -173.88196045 96.72968994 -174.78173828 97.47412109 C-185.62986799 106.50419258 -195.29314646 115.83772909 -204 127 C-204.42684082 127.5451123 -204.85368164 128.09022461 -205.29345703 128.65185547 C-219.0399869 146.34894201 -230.68833421 166.48505599 -237.25 188 C-238.31953047 191.39084323 -239.00858062 193.01043589 -241.3125 195.8125 C-245.0074875 197.4451689 -247.15848232 197.13822746 -251 196 C-253 194.4375 -253 194.4375 -254 192 C-253.61469467 185.61794255 -251.87648262 180.37502638 -249.4375 174.5 C-249.08034912 173.62706299 -248.72319824 172.75412598 -248.35522461 171.85473633 C-233.47363971 136.03643603 -210.08057118 103.4208566 -178.703125 80.25878906 C-177.03965069 79.02930604 -175.39472448 77.77783788 -173.75 76.5234375 C-153.04927679 60.98171543 -129.13534912 49.2453805 -104 43 C-102.85402344 42.66613281 -101.70804688 42.33226562 -100.52734375 41.98828125 C-83.00960857 36.94841947 -65.54371764 35.44092037 -47.375 35.5625 C-46.41909973 35.56520905 -45.46319946 35.56791809 -44.47833252 35.57070923 C-29.01899896 35.63690967 -14.12312543 36.54174302 1 40 C1.80856445 40.18191895 2.61712891 40.36383789 3.45019531 40.55126953 C8.72156386 41.78272285 13.86102511 43.3037881 19 45 C20.25876953 45.40943848 20.25876953 45.40943848 21.54296875 45.82714844 C48.42731672 54.70683271 73.7842207 68.06693113 95 87 C96.46953125 88.30710938 96.46953125 88.30710938 97.96875 89.640625 C101.0205787 92.38437352 104.0150721 95.18357609 107 98 C107.8559375 98.80179687 108.711875 99.60359375 109.59375 100.4296875 C116.47611261 107.07247419 122.25588249 114.38280069 128 122 C128.7115625 122.928125 129.423125 123.85625 130.15625 124.8125 C147.50443123 147.94340831 159.53631109 174.8950647 166 203 C166.29648437 204.28003906 166.59296875 205.56007812 166.8984375 206.87890625 C167.64540961 210.24767652 168.35758165 213.60966499 169 217 C169.16918945 217.75853271 169.33837891 218.51706543 169.51269531 219.29858398 C171.6229706 229.83202876 171.39810402 240.4906611 171.375 251.1875 C171.3737915 252.215336 171.37258301 253.243172 171.37133789 254.30215454 C171.32159507 269.86968658 170.82991037 284.83110215 167 300 C166.72623535 301.08684082 166.4524707 302.17368164 166.17041016 303.29345703 C162.14062697 318.77262964 156.91473569 333.57873986 150 348 C149.61086426 348.81404297 149.22172852 349.62808594 148.82080078 350.46679688 C134.24781769 380.4843958 111.72505298 407.10604675 85 427 C84.40751465 427.44263184 83.8150293 427.88526367 83.20458984 428.34130859 C75.42097991 434.12104846 67.49226043 439.30281566 59 444 C60.58532809 448.55564061 62.99003081 452.31475769 65.625 456.3125 C66.04523438 456.95767578 66.46546875 457.60285156 66.8984375 458.26757812 C67.92838241 459.84760724 68.96365628 461.42416047 70 463 C84.8100593 456.49384678 97.80957021 446.52369376 110 436 C110.77988281 435.33097656 111.55976563 434.66195313 112.36328125 433.97265625 C124.23921658 423.53505024 135.34253797 412.43542338 144.74121094 399.703125 C145.97069396 398.03965069 147.22216212 396.39472448 148.4765625 394.75 C179.2464174 353.74996138 194.13787798 302.80117369 194.3125 251.9375 C194.31511841 251.19999512 194.31773682 250.46249023 194.32043457 249.70263672 C194.32589561 235.20123912 192.73515956 221.24969289 190 207 C189.77570313 205.75790771 189.77570313 205.75790771 189.546875 204.49072266 C182.34801549 164.98864749 163.13516421 127.27443515 137 97 C136.33097656 96.22011719 135.66195313 95.44023438 134.97265625 94.63671875 C124.01958208 82.1742824 112.33470361 70.8686019 99 61 C97.26781553 59.71360537 95.53579507 58.42701128 93.80541992 57.13818359 C92.28589025 56.01051694 90.75843788 54.89354841 89.23046875 53.77734375 C87 52 87 52 86 50 C85.64127355 46.12575435 85.43289271 43.85066094 87.625 40.5625 C90.73414216 38.51701174 92.31351448 38.60867222 96 39 C99.04296875 40.65234375 99.04296875 40.65234375 102.1875 42.9375 C102.74993408 43.34355469 103.31236816 43.74960937 103.8918457 44.16796875 C109.44336759 48.22193262 114.77968345 52.52882253 120 57 C121.12535156 57.95712891 121.12535156 57.95712891 122.2734375 58.93359375 C135.76885554 70.74784196 148.43698695 83.48744855 159 98 C159.85649066 99.14994831 160.71326433 100.29968589 161.5703125 101.44921875 C167.6109414 109.64089526 172.97005071 118.15645078 178 127 C178.36448242 127.63180176 178.72896484 128.26360352 179.10449219 128.91455078 C194.03507977 155.0002508 203.51240561 184.33558667 208 214 C208.17732666 215.12462646 208.35465332 216.24925293 208.53735352 217.40795898 C210.18875708 228.96190444 210.35670897 240.40465547 210.3125 252.0625 C210.30976578 253.55659393 210.30976578 253.55659393 210.30697632 255.08087158 C210.26223255 269.59330287 209.80469043 283.72309519 207 298 C206.83902832 298.89557617 206.67805664 299.79115234 206.51220703 300.71386719 C197.70340196 349.40345832 174.2601479 394.42879928 140 430 C139.36787598 430.65935547 138.73575195 431.31871094 138.08447266 431.99804688 C128.94002521 441.48630305 119.64265991 450.2262044 109 458 C107.84894983 458.85806152 106.69790823 459.71613451 105.546875 460.57421875 C99.46118808 465.05854375 93.21894106 469.21296802 86.75 473.125 C86.10554932 473.51574707 85.46109863 473.90649414 84.79711914 474.30908203 C80.25413007 477 80.25413007 477 78 477 C78.05800781 477.82242187 78.11601562 478.64484375 78.17578125 479.4921875 C78.53706167 488.43129743 77.43264721 495.03038128 71.35546875 501.84375 C65.00192684 507.69531907 58.67516325 509.45121741 50.25309753 509.39440918 C49.39662622 509.40050028 48.54015491 509.40659139 47.65772992 509.41286707 C44.80057341 509.42945685 41.94386452 509.42472699 39.08666992 509.41992188 C37.03291869 509.42726458 34.97917158 509.4358514 32.9254303 509.44558716 C27.3550665 509.46779182 21.78485067 509.47073431 16.21444869 509.46883965 C11.5600069 509.46871988 6.90559638 509.47728648 2.2511633 509.48561716 C-8.73272554 509.50484791 -19.71653839 509.50773641 -30.70043945 509.50097656 C-42.02093123 509.49433756 -53.34109702 509.51719543 -64.66152269 509.55429029 C-74.38999647 509.58500863 -84.11836551 509.59634494 -93.84688681 509.59245348 C-99.65319525 509.59038801 -105.45925007 509.59583418 -111.26551247 509.62034607 C-116.72807501 509.64264535 -122.19010853 509.64070852 -127.65267372 509.62041855 C-129.65289218 509.61701405 -131.65314647 509.62207335 -133.6533165 509.63640213 C-154.76169309 509.77713536 -154.76169309 509.77713536 -162.87919331 502.25972748 C-169.53963925 495.27264718 -170.32738577 488.97100857 -170.10546875 479.59765625 C-170.07066406 478.74042969 -170.03585938 477.88320313 -170 477 C-170.78375 476.80277344 -171.5675 476.60554688 -172.375 476.40234375 C-177.39465637 474.46047237 -181.5598598 471.57486796 -186 468.5625 C-187.39786743 467.6202356 -187.39786743 467.6202356 -188.82397461 466.65893555 C-201.05243908 458.33809089 -212.34232017 449.26486821 -223 439 C-223.65935547 438.36787598 -224.31871094 437.73575195 -224.99804688 437.08447266 C-234.48630305 427.94002521 -243.2262044 418.64265991 -251 408 C-251.85806152 406.84894983 -252.71613451 405.69790823 -253.57421875 404.546875 C-259.61236829 396.35569386 -264.97095521 387.84195895 -270 379 C-270.36448242 378.36819824 -270.72896484 377.73639648 -271.10449219 377.08544922 C-286.03585402 350.99839649 -295.50920268 321.66499753 -300 292 C-300.17732666 290.88117432 -300.35465332 289.76234863 -300.53735352 288.60961914 C-302.21876346 276.88764016 -302.35733932 265.26500982 -302.3125 253.4375 C-302.31034485 252.41676392 -302.3081897 251.39602783 -302.30596924 250.34436035 C-302.25630099 235.70170002 -301.94579688 221.39011101 -299 207 C-298.70996094 205.50509033 -298.70996094 205.50509033 -298.4140625 203.97998047 C-288.98337882 156.25169789 -267.01385226 111.95595549 -233 77 C-232.30745117 76.28166992 -231.61490234 75.56333984 -230.90136719 74.82324219 C-221.16227659 64.75554457 -211.41278841 55.15062776 -200 47 C-199.38092773 46.55253418 -198.76185547 46.10506836 -198.12402344 45.64404297 C-166.28930047 22.75534085 -130.61058848 7.10570175 -92 0 C-91.19933105 -0.16081055 -90.39866211 -0.32162109 -89.57373047 -0.48730469 C-61.50672956 -5.977321 -27.99815756 -5.74943715 0 0 Z " fill="#020202" transform="translate(302,3)"/>
<path d="M0 0 C1.88066754 -0.01619734 3.76137648 -0.02762208 5.64208984 -0.03710938 C7.21305923 -0.04744202 7.21305923 -0.04744202 8.81576538 -0.0579834 C13.82374389 0.03320951 18.68644678 0.70221517 23.625 1.5 C24.68895996 1.67160645 25.75291992 1.84321289 26.84912109 2.02001953 C39.25033638 4.18030144 51.11942302 7.89956831 63 12 C63.74958984 12.25507324 64.49917969 12.51014648 65.27148438 12.77294922 C85.20460748 19.68902058 103.88622636 31.53667239 120 45 C120.52319824 45.42764648 121.04639648 45.85529297 121.58544922 46.29589844 C156.44143145 74.80436991 179.57894452 113.89761629 190.125 157.5 C190.28387695 158.15186279 190.44275391 158.80372559 190.60644531 159.4753418 C191.11100322 161.64361303 191.56357396 163.81697134 192 166 C192.27251587 167.32052368 192.27251587 167.32052368 192.55053711 168.66772461 C194.30119297 178.31781467 194.33808993 187.9066568 194.31567383 197.6809082 C194.31253237 200.533111 194.33598401 203.3842541 194.36132812 206.23632812 C194.46882129 237.69718282 186.17607166 267.95795826 172 296 C168.22184858 295.42090398 165.51821204 294.36074423 162.24609375 292.40234375 C161.3236084 291.85634521 160.40112305 291.31034668 159.45068359 290.74780273 C158.45633301 290.15040283 157.46198242 289.55300293 156.4375 288.9375 C154.27290803 287.65494516 152.10751026 286.37374952 149.94140625 285.09375 C148.80719238 284.42214844 147.67297852 283.75054687 146.50439453 283.05859375 C141.25220217 279.96248734 135.94771927 276.95841786 130.64645386 273.94744873 C128.87552074 272.93779689 127.10912339 271.92063901 125.34399414 270.90087891 C119.75152983 267.67455629 114.13920854 264.52637449 108.40625 261.5546875 C93.88130053 253.85604014 93.88130053 253.85604014 91.37890625 248.5859375 C90.95590741 245.32922075 90.94770837 242.276942 91 239 C89.20541219 233.09780008 85.27602062 230.33786776 80.140625 227.25 C79.28240395 226.73200081 79.28240395 226.73200081 78.40684509 226.20353699 C72.18560188 222.46890196 65.8759361 218.88823957 59.5625 215.3125 C58.34426894 214.61497507 57.12650303 213.91663718 55.90917969 213.2175293 C50.16472324 209.92099625 44.40928028 206.6661261 38.57421875 203.53125 C36.63275741 202.45843302 34.69134803 201.385522 32.75 200.3125 C31.87674072 199.86366455 31.00348145 199.4148291 30.10375977 198.95239258 C22.84766248 194.87514343 17.77486932 188.84955378 15 181 C13.64077866 173.94125948 14.04721993 166.67062783 14.17578125 159.51953125 C14.18097041 157.45457069 14.18188493 155.38959544 14.17875671 153.32463074 C14.17864475 147.92099834 14.22166333 142.51871975 14.27856445 137.11541748 C14.3674987 128.4595238 14.41241987 119.80401324 14.41506004 111.14768028 C14.42557312 108.14154576 14.4682848 105.13708238 14.51374817 102.13130188 C14.71675262 87.59481641 14.71675262 87.59481641 7.45039368 75.38313293 C5.12933267 73.34533377 2.56759615 71.71173076 0 70 C-0.36076355 67.10202026 -0.36076355 67.10202026 -0.34057617 63.34716797 C-0.34101425 62.66412598 -0.34145233 61.98108398 -0.34190369 61.27734375 C-0.33981044 59.01533612 -0.31645543 56.75406594 -0.29296875 54.4921875 C-0.28737467 52.92563278 -0.28310369 51.35907282 -0.28010559 49.79251099 C-0.26864192 45.66597038 -0.23916195 41.53974571 -0.20599365 37.41333008 C-0.17532537 33.20398228 -0.16160721 28.99458352 -0.14648438 24.78515625 C-0.11429344 16.52329239 -0.06307904 8.26168547 0 0 Z " fill="#FD75A7" transform="translate(264,54)"/>
<path d="M0 0 C1.1500502 -0.00271912 1.1500502 -0.00271912 2.32333374 -0.00549316 C12.928507 -0.00264556 23.19481539 0.81227544 33.6875 2.375 C34.54126221 2.50052246 35.39502441 2.62604492 36.2746582 2.75537109 C59.03013271 6.28428101 82.77999729 12.37494787 103.07421875 23.4765625 C106.60185405 24.68935191 109.09437092 24.21893779 112.6875 23.375 C113.3475 22.715 114.0075 22.055 114.6875 21.375 C121.32127334 21.83453314 127.69920388 26.2024455 132.6875 30.375 C133.61657786 33.34152931 133.10305038 35.20642833 132.6875 38.375 C135.78211691 41.9872826 139.34580311 44.72426846 143.1875 47.5 C161.25951235 60.8661955 178.24923112 76.49772461 191.49316406 94.73632812 C192.68983421 96.37820262 193.91608707 97.99416788 195.1484375 99.609375 C220.81861413 133.77555529 233.85451159 173.52224374 239.6875 215.375 C239.86547119 216.49390625 240.04344238 217.6128125 240.22680664 218.765625 C240.70208215 222.48924618 240.83327185 226.07517871 240.85546875 229.828125 C240.85970352 230.52147949 240.86393829 231.21483398 240.86830139 231.92919922 C240.87813651 234.16119537 240.87822978 236.39298611 240.875 238.625 C240.87439575 239.38921265 240.8737915 240.15342529 240.87316895 240.9407959 C240.84825192 252.5296446 240.52460934 263.91134029 238.6875 275.375 C238.47818848 276.70362061 238.47818848 276.70362061 238.26464844 278.05908203 C236.43947344 289.37245445 234.26722458 300.46987877 230.6875 311.375 C230.45192383 312.10332031 230.21634766 312.83164062 229.97363281 313.58203125 C219.88160841 344.52921774 205.00486946 372.6751697 183.6875 397.375 C183.03007812 398.14328125 182.37265625 398.9115625 181.6953125 399.703125 C170.46405231 412.5025234 158.44749883 424.33275366 144.6875 434.375 C144.00510254 434.88047363 143.32270508 435.38594727 142.61962891 435.90673828 C133.99706344 442.27486012 125.53856913 448.04736269 115.6875 452.375 C113.64989467 449.44880821 111.63544274 446.50740552 109.625 443.5625 C109.04427734 442.72912109 108.46355469 441.89574219 107.86523438 441.03710938 C107.32060547 440.23466797 106.77597656 439.43222656 106.21484375 438.60546875 C105.70687256 437.86707764 105.19890137 437.12868652 104.67553711 436.36791992 C103.6875 434.375 103.6875 434.375 104.6875 431.375 C106.78958733 430.00288824 108.87070462 428.77462082 111.0625 427.5625 C126.20319345 418.79615644 139.73270436 408.09060475 152.19091797 395.84082031 C153.44458931 394.61291775 154.72160224 393.40890785 156.00390625 392.2109375 C162.30466971 386.22839441 167.46759952 379.29178358 172.6875 372.375 C173.33404541 371.52760254 173.33404541 371.52760254 173.99365234 370.66308594 C181.24180744 361.11237869 187.16442017 351.00646533 192.6875 340.375 C193.04585938 339.69099121 193.40421875 339.00698242 193.7734375 338.30224609 C209.6836282 307.53606436 216.05517141 274.32849327 216.125 240 C216.13099213 239.0242099 216.13698425 238.0484198 216.14315796 237.0430603 C216.21556227 219.3095874 214.24342583 202.554542 209.5 185.4375 C209.19956787 184.34195801 208.89913574 183.24641602 208.58959961 182.11767578 C201.28343504 156.28013059 189.06726637 131.66869629 172.6875 110.375 C171.75164062 109.14910156 171.75164062 109.14910156 170.796875 107.8984375 C165.45398824 101.05693615 159.63753287 94.68512132 153.6875 88.375 C152.59308594 87.199375 152.59308594 87.199375 151.4765625 86 C145.12326275 79.38689989 137.98258658 73.8933766 130.6875 68.375 C129.75808594 67.66214844 128.82867187 66.94929688 127.87109375 66.21484375 C105.6459262 49.5542487 79.26498802 37.25067257 52.3125 30.625 C51.5601709 30.43824707 50.8078418 30.25149414 50.03271484 30.05908203 C33.96584451 26.37274382 17.85916328 24.87094569 1.40307617 24.98388672 C-1.37826365 25.00001893 -4.15815562 24.98388872 -6.93945312 24.96484375 C-23.17916168 24.94492277 -39.05092743 26.79789118 -54.75 31.0625 C-55.6975415 31.31596191 -56.64508301 31.56942383 -57.62133789 31.83056641 C-73.58966776 36.24979209 -88.75100846 42.50287541 -103.3125 50.375 C-104.2104126 50.85404785 -104.2104126 50.85404785 -105.12646484 51.34277344 C-122.97332557 60.925307 -138.62872409 73.49676818 -153.3125 87.375 C-154.59833984 88.57962891 -154.59833984 88.57962891 -155.91015625 89.80859375 C-179.11396957 112.20339931 -198.65371998 144.2996006 -207.3125 175.375 C-207.2488921 179.07554409 -207.2488921 179.07554409 -206.3125 182.375 C-205.3225 183.035 -204.3325 183.695 -203.3125 184.375 C-203.86113863 191.1607936 -204.85517938 197.72509036 -206.3125 204.375 C-207.240625 204.6225 -208.16875 204.87 -209.125 205.125 C-212.60219392 206.48860546 -213.63106811 207.10063264 -215.3125 210.375 C-216.29066114 215.74085176 -216.48601113 220.96974243 -216.515625 226.40234375 C-216.52263931 227.26000336 -216.52965363 228.11766296 -216.53688049 229.00131226 C-216.5543683 231.77176166 -216.56073757 234.54199734 -216.5625 237.3125 C-216.56317474 238.25773529 -216.56384949 239.20297058 -216.56454468 240.17684937 C-216.5479839 254.76596342 -216.04878094 269.00541244 -213.3125 283.375 C-213.1568457 284.23109863 -213.00119141 285.08719727 -212.84082031 285.96923828 C-205.05371101 327.30619876 -183.04363823 364.235904 -154.3125 394.375 C-153.62542969 395.10332031 -152.93835938 395.83164062 -152.23046875 396.58203125 C-138.35044629 410.91435586 -121.29277478 422.08865746 -104.3125 432.375 C-105.93364502 437.17321659 -108.60526759 441.0422859 -111.4375 445.1875 C-112.13939453 446.22680664 -112.13939453 446.22680664 -112.85546875 447.28710938 C-114.00362437 448.98591105 -115.15749367 450.68084864 -116.3125 452.375 C-136.04363271 443.70698794 -152.83265467 429.09676343 -168.3125 414.375 C-168.87904297 413.83713867 -169.44558594 413.29927734 -170.02929688 412.74511719 C-178.08722102 405.0388925 -185.39740194 397.05513375 -192.03759766 388.09423828 C-193.2752098 386.42528678 -194.53303819 384.77322447 -195.79296875 383.12109375 C-210.12410438 364.01860325 -220.34866026 342.42643285 -228.625 320.125 C-228.93856445 319.28718994 -229.25212891 318.44937988 -229.57519531 317.58618164 C-246.35235 270.9286453 -245.6967001 217.42751108 -231.3125 170.375 C-230.93617432 169.12662354 -230.93617432 169.12662354 -230.55224609 167.85302734 C-216.71181023 122.89608745 -187.00586618 79.77700421 -149.3125 51.375 C-148.75916992 50.95057617 -148.20583984 50.52615234 -147.63574219 50.08886719 C-138.57887227 43.15493151 -129.26892764 36.93902012 -119.3125 31.375 C-118.53132813 30.93655762 -117.75015625 30.49811523 -116.9453125 30.04638672 C-100.18790606 20.73127858 -82.80699797 13.49297428 -64.3125 8.375 C-62.66701172 7.88773438 -62.66701172 7.88773438 -60.98828125 7.390625 C-41.02174095 1.87383384 -20.63633602 -0.00313833 0 0 Z " fill="#518DD5" transform="translate(256.3125,14.625)"/>
<path d="M0 0 C10.87730692 5.41161658 17.86059342 21.2722375 24.33691406 31.1723938 C34.94403084 47.37955747 45.65431329 63.5140655 56.5 79.5625 C57.08857788 80.43373505 57.67715576 81.30497009 58.28356934 82.2026062 C62.5189272 88.47074187 66.758994 94.73568501 71 101 C75.67421043 107.90444398 80.34649391 114.81017932 85.01464844 121.71871948 C86.88656543 124.48717087 88.76155347 127.25352358 90.63671875 130.01977539 C91.78791362 131.72271545 92.9389629 133.42575395 94.08984375 135.12890625 C94.60107285 135.88123535 95.11230194 136.63356445 95.63902283 137.40869141 C105.66908503 152.27924213 105.66908503 152.27924213 106.625 157.25 C105.50686991 162.16977238 103.1537337 165.2308442 99 168 C96.27564609 168.19792931 93.65320723 168.27822351 90.92825317 168.26742554 C90.09617305 168.27195665 89.26409292 168.27648776 88.40679824 168.28115618 C85.6085453 168.29385304 82.81048566 168.29217642 80.01220703 168.29052734 C78.0100479 168.2965093 76.00789107 168.30331407 74.0057373 168.31088257 C68.55945965 168.32858367 63.1132448 168.33323968 57.66694117 168.33451414 C53.1240751 168.33641085 48.58122375 168.34376576 44.03836334 168.35085833 C33.32228025 168.36715551 22.60623077 168.37202607 11.89013672 168.37060547 C0.82756707 168.36940368 -10.23480759 168.39051005 -21.29732788 168.4220928 C-30.78784317 168.44822432 -40.27829467 168.45897408 -49.76884568 168.45769465 C-55.44032585 168.4571841 -61.11163282 168.4629187 -66.78307724 168.48405075 C-72.1166431 168.50338051 -77.4498696 168.50359364 -82.78344727 168.48901749 C-84.74222431 168.48692174 -86.70102231 168.49167561 -88.65976334 168.5037384 C-91.33167265 168.5191288 -94.00240275 168.5099242 -96.67428589 168.49447632 C-97.45142877 168.50476344 -98.22857166 168.51505057 -99.02926433 168.52564943 C-103.98187148 168.46226982 -106.51617579 167.52540793 -110 164 C-112.31183359 160.69738058 -112.37086993 157.96964943 -112 154 C-110.66729335 151.39461688 -109.33369702 149.10651448 -107.71875 146.69140625 C-107.27035767 145.99866104 -106.82196533 145.30591583 -106.35998535 144.59217834 C-104.9227104 142.38372768 -103.46437199 140.19056142 -102 138 C-101.29858887 136.94410675 -101.29858887 136.94410675 -100.58300781 135.86688232 C-97.25673787 130.8666271 -93.88351532 125.89912647 -90.5 120.9375 C-88.55100771 118.07234521 -86.60351948 115.20616964 -84.65625 112.33984375 C-84.18574219 111.64756683 -83.71523437 110.95528992 -83.23046875 110.24203491 C-79.9167687 105.36223686 -76.62108777 100.47070175 -73.34375 95.56640625 C-72.91952759 94.9330687 -72.49530518 94.29973114 -72.05822754 93.64720154 C-68.9607026 89.00079369 -67.66089144 86.65180927 -68 81 C-68.62393112 79.64614174 -69.28398924 78.30749792 -70 77 C-68.50798139 74.47827841 -66.98565717 71.98690949 -65.4375 69.5 C-65.01919922 68.78457031 -64.60089844 68.06914062 -64.16992188 67.33203125 C-62.8965146 65.32138818 -61.74457487 63.62211858 -60 62 C-56.47265625 61.78125 -56.47265625 61.78125 -53 62 C-47.63704063 58.78233786 -44.75275943 53.50837935 -41.44921875 48.37109375 C-40.83158157 47.42621597 -40.2139444 46.4813382 -39.57759094 45.50782776 C-37.60634246 42.48943756 -35.64639486 39.46391906 -33.6875 36.4375 C-9.36323668 -0.98560386 -9.36323668 -0.98560386 0 0 Z " fill="#FCDF76" transform="translate(259,329)"/>
<path d="M0 0 C17.3583545 13.8866836 30.06512859 32.8882388 41 52 C41.43054688 52.75120117 41.86109375 53.50240234 42.3046875 54.27636719 C52.57996723 72.43714567 60.08380934 91.73278557 65 112 C65.17869629 112.71397949 65.35739258 113.42795898 65.54150391 114.16357422 C66.84580564 119.41494984 67.98144432 124.68598691 69 130 C69.22864746 131.18045898 69.22864746 131.18045898 69.46191406 132.38476562 C73.78908173 155.76829373 73.76390126 181.51305645 70 205 C69.86045898 205.88574707 69.72091797 206.77149414 69.57714844 207.68408203 C67.75197344 218.99745445 65.57972458 230.09487877 62 241 C61.76442383 241.72832031 61.52884766 242.45664062 61.28613281 243.20703125 C51.19410841 274.15421774 36.31736946 302.3001697 15 327 C14.34257812 327.76828125 13.68515625 328.5365625 13.0078125 329.328125 C1.77655231 342.1275234 -10.24000117 353.95775366 -24 364 C-24.68239746 364.50547363 -25.36479492 365.01094727 -26.06787109 365.53173828 C-34.69043656 371.89986012 -43.14893087 377.67236269 -53 382 C-55.03760533 379.07380821 -57.05205726 376.13240552 -59.0625 373.1875 C-59.93358398 371.93743164 -59.93358398 371.93743164 -60.82226562 370.66210938 C-61.36689453 369.85966797 -61.91152344 369.05722656 -62.47265625 368.23046875 C-62.98062744 367.49207764 -63.48859863 366.75368652 -64.01196289 365.99291992 C-65 364 -65 364 -64 361 C-61.89791267 359.62788824 -59.81679538 358.39962082 -57.625 357.1875 C-42.48430655 348.42115644 -28.95479564 337.71560475 -16.49658203 325.46582031 C-15.24291069 324.23791775 -13.96589776 323.03390785 -12.68359375 321.8359375 C-6.38283029 315.85339441 -1.21990048 308.91678358 4 302 C4.64654541 301.15260254 4.64654541 301.15260254 5.30615234 300.28808594 C12.55430744 290.73737869 18.47692017 280.63146533 24 270 C24.35835938 269.31599121 24.71671875 268.63198242 25.0859375 267.92724609 C40.9961282 237.16106436 47.36767141 203.95349327 47.4375 169.625 C47.44648819 168.16131485 47.44648819 168.16131485 47.45565796 166.6680603 C47.52806981 148.93274095 45.55191046 132.18193353 40.8125 115.0625 C40.51714355 113.97638428 40.22178711 112.89026855 39.91748047 111.77124023 C37.21225647 102.14647897 33.71864405 92.92706596 29.73681641 83.76391602 C28.45524327 80.695869 27.88544318 78.09835679 27.6875 74.8125 C25.37832466 50.92804461 14.79575957 26.25002908 2.6015625 5.79296875 C1 3 1 3 0 0 Z " fill="#0571CB" transform="translate(425,85)"/>
<path d="M0 0 C2.90891211 0.6853585 5.22672452 1.53414317 7.8359375 3.00390625 C8.92696777 3.61516357 8.92696777 3.61516357 10.04003906 4.23876953 C10.81057617 4.67560059 11.58111328 5.11243164 12.375 5.5625 C13.17647461 6.00706543 13.97794922 6.45163086 14.80371094 6.90966797 C18.53912262 8.99142048 22.22150604 11.10609415 25.8046875 13.44140625 C33.74517774 18.53793848 40.50449223 20.72752431 50 19 C51.0003125 18.47019531 52.000625 17.94039063 53.03125 17.39453125 C56.67664695 15.682154 58.13697957 16.07130206 62 17 C64.43994141 18.14477539 64.43994141 18.14477539 66.8515625 19.59765625 C68.23045654 20.41665405 68.23045654 20.41665405 69.63720703 21.25219727 C70.62317871 21.84959717 71.60915039 22.44699707 72.625 23.0625 C74.78042274 24.3451412 76.93670842 25.6263331 79.09375 26.90625 C80.22167969 27.57785156 81.34960938 28.24945313 82.51171875 28.94140625 C87.75335573 32.04723439 93.0550513 35.0479236 98.35308838 38.05612183 C110.98536215 45.2307712 123.5229622 52.55864206 136 60 C134.51939458 64.25970972 132.30900583 67.74550018 129.6875 71.375 C129.03696655 72.27931763 129.03696655 72.27931763 128.37329102 73.2019043 C117.64900664 87.8396382 105.22540544 100.7543782 91 112 C90.13246094 112.69996094 89.26492188 113.39992188 88.37109375 114.12109375 C82.25528169 119 82.25528169 119 80 119 C78.7644043 117.47924805 78.7644043 117.47924805 77.32421875 115.26171875 C76.75936768 114.40223633 76.1945166 113.54275391 75.61254883 112.65722656 C74.65964966 111.18721191 74.65964966 111.18721191 73.6875 109.6875 C72.22818856 107.46635595 70.76732727 105.24629207 69.3046875 103.02734375 C68.89887955 102.41037628 68.49307159 101.79340881 68.07496643 101.15774536 C64.59182986 95.87142177 61.05663718 90.62130508 57.5078125 85.37890625 C56.93088654 84.52655396 56.35396057 83.67420166 55.759552 82.79602051 C54.55809133 81.02129644 53.35656217 79.24661873 52.15496826 77.47198486 C39.74223228 59.13393251 27.49116891 40.69479874 15.36645508 22.16503906 C14.78236877 21.27441269 14.19828247 20.38378632 13.59649658 19.46617126 C12.51564599 17.8178927 11.4368806 16.16824376 10.36077881 14.51686096 C7.08920695 9.531163 3.63396105 4.72797913 0 0 Z " fill="#F0F9FD" transform="translate(291,303)"/>
<path d="M0 0 C3.72414687 3.39908722 6.31627454 7.22508009 9.05859375 11.41015625 C9.55164505 12.15388489 10.04469635 12.89761353 10.5526886 13.66387939 C12.18501287 16.12742934 13.81113599 18.59501213 15.4375 21.0625 C17.7722675 24.59018227 20.11058901 28.11550229 22.44921875 31.640625 C23.05714264 32.55777786 23.66506653 33.47493073 24.29141235 34.4198761 C28.81356995 41.23470302 33.37492856 48.02223048 37.95703125 54.796875 C38.6103392 55.76302231 39.26364716 56.72916962 39.93675232 57.72459412 C42.5009087 61.5149795 45.06608334 65.30466069 47.63571167 69.09133911 C49.42079348 71.72217427 51.20276587 74.35509365 52.984375 76.98828125 C53.50526199 77.75352112 54.02614899 78.51876099 54.56282043 79.30718994 C64.66428994 94.2543077 64.66428994 94.2543077 65.625 99.25 C64.50686991 104.16977238 62.1537337 107.2308442 58 110 C55.03943169 110.18478127 52.1742436 110.25210721 49.21411133 110.22705078 C48.31634476 110.22734283 47.41857819 110.22763489 46.49360657 110.22793579 C43.52298351 110.22654125 40.55261055 110.21097415 37.58203125 110.1953125 C35.5236576 110.19158281 33.46528218 110.18873563 31.40690613 110.18673706 C25.98665473 110.17909712 20.56651035 110.15944549 15.14630127 110.1373291 C9.61642912 110.11687847 4.08653969 110.10773702 -1.44335938 110.09765625 C-12.29561996 110.07619998 -23.14780108 110.04205964 -34 110 C-33.5953804 109.26149811 -33.1907608 108.52299622 -32.77388 107.76211548 C-32.23917587 106.78439178 -31.70447174 105.80666809 -31.15356445 104.79931641 C-30.62519485 103.83393951 -30.09682526 102.86856262 -29.55244446 101.87393188 C-12.45553531 70.22361931 -2.11915967 35.95263989 0 0 Z " fill="#FED05A" transform="translate(300,387)"/>
<path d="M0 0 C0.99 0.01933594 0.99 0.01933594 2 0.0390625 C2.66 0.02617187 3.32 0.01328125 4 0 C7.18435177 1.0573043 8.20730806 2.87202457 10 5.6640625 C10.36709212 8.49866253 10.50837793 10.93301332 10.45410156 13.7590332 C10.45468567 14.55955612 10.45526978 15.36007904 10.45587158 16.18486023 C10.45309374 18.820302 10.42201701 21.45460055 10.390625 24.08984375 C10.38316152 25.92115155 10.37746909 27.75246736 10.37347412 29.58378601 C10.35822621 34.39590637 10.31895169 39.20754123 10.2746582 44.01947021 C10.2336873 48.93283521 10.21545922 53.84627892 10.1953125 58.75976562 C10.15245645 68.39477851 10.08211352 78.02930411 10 87.6640625 C4.72 87.6640625 -0.56 87.6640625 -6 87.6640625 C-6.09038343 77.05895777 -6.16376346 66.45410903 -6.20724869 55.84870625 C-6.22811985 50.92413837 -6.25642896 45.99984776 -6.30175781 41.07543945 C-6.34523227 36.32272302 -6.36914066 31.57027321 -6.37950897 26.81737328 C-6.38689746 25.00446564 -6.40132554 23.19157253 -6.42292023 21.37877846 C-6.45197587 18.83854309 -6.45595516 16.29940812 -6.45410156 13.7590332 C-6.46848267 13.01024902 -6.48286377 12.26146484 -6.49768066 11.48999023 C-6.46874587 7.82314074 -6.09758133 5.81604109 -4.09661865 2.69963074 C-2 0.6640625 -2 0.6640625 0 0 Z " fill="#518ED7" transform="translate(254,137.3359375)"/>
<path d="M0 0 C3.02699731 2.23402801 3.90871769 3.43465534 4.5146637 7.1875 C4.52396156 9.0746875 4.52396156 9.0746875 4.53344727 11 C4.54206284 11.69641602 4.55067841 12.39283203 4.55955505 13.11035156 C4.58221713 15.40728148 4.57547711 17.70299165 4.56640625 20 C4.57164152 21.59896202 4.57791765 23.19792095 4.58518982 24.796875 C4.59559418 28.1459813 4.59103199 31.49466271 4.57641602 34.84375 C4.55922116 39.1349359 4.58273033 43.42478372 4.61790562 47.71582031 C4.63986862 51.01701728 4.63844106 54.31789344 4.6301403 57.61914062 C4.62932029 59.20118681 4.63619332 60.78325644 4.65091133 62.36523438 C4.66834043 64.57765929 4.65383401 66.78767205 4.63110352 69 C4.62966087 70.8871875 4.62966087 70.8871875 4.62818909 72.8125 C4 76 4 76 1.65586853 78.44140625 C-1 80 -1 80 -4.125 79.9375 C-7.16585162 78.94591795 -8.16914077 78.55605662 -10 76 C-10.38768005 72.88806152 -10.38768005 72.88806152 -10.40405273 69.00585938 C-10.41091599 68.29822952 -10.41777924 67.59059967 -10.42485046 66.86152649 C-10.44315461 64.52206367 -10.43927649 62.18326907 -10.43359375 59.84375 C-10.43815351 58.21854432 -10.44345847 56.59334058 -10.44947815 54.96813965 C-10.45841607 51.56185065 -10.45597811 48.15579603 -10.44604492 44.74951172 C-10.43454814 40.38104059 -10.45477343 36.01337692 -10.48396206 31.6450119 C-10.50229327 28.28898976 -10.50203792 24.93316229 -10.49632454 21.57710266 C-10.49617098 19.96632249 -10.50224405 18.35552942 -10.51461601 16.74479675 C-10.52946884 14.49405996 -10.51889373 12.24482974 -10.50170898 9.99414062 C-10.50154282 8.71301392 -10.50137665 7.43188721 -10.50120544 6.11193848 C-10 3 -10 3 -8.15614319 1.09020996 C-5.19292727 -0.40807991 -3.27734531 -0.47794619 0 0 Z " fill="#010000" transform="translate(259,371)"/>
<path d="M0 0 C3.63632623 1.37448867 6.97064121 3.00434858 10.359375 4.90625 C11.38490479 5.48052734 12.41043457 6.05480469 13.46704102 6.64648438 C14.55041748 7.25814453 15.63379395 7.86980469 16.75 8.5 C18.42050415 9.44069336 18.42050415 9.44069336 20.12475586 10.40039062 C50.61190718 27.61190718 50.61190718 27.61190718 56 33 C56.39152344 36.52371092 56.41041808 38.37616451 54.4375 41.375 C51.18532424 43.54311717 48.74435656 43.74408968 45 43 C41.00550343 41.27058343 37.30849445 39.08373684 33.5625 36.875 C32.47952637 36.25133545 31.39655273 35.6276709 30.28076172 34.98510742 C27.42557711 33.33715544 24.57844862 31.6762264 21.73358154 30.01055908 C18.87452649 28.34392617 16.0008794 26.70283435 13.12890625 25.05859375 C10.96037011 23.81088145 8.792381 22.56221781 6.625 21.3125 C5.60349854 20.7251709 4.58199707 20.1378418 3.52954102 19.53271484 C2.58393311 18.98180176 1.6383252 18.43088867 0.6640625 17.86328125 C-0.16657715 17.38157471 -0.9972168 16.89986816 -1.85302734 16.40356445 C-3.85453295 15.0950978 -5.39133378 13.75848342 -7 12 C-6.66226562 11.46890625 -6.32453125 10.9378125 -5.9765625 10.390625 C-5.53054688 9.68421875 -5.08453125 8.9778125 -4.625 8.25 C-4.18414062 7.55390625 -3.74328125 6.8578125 -3.2890625 6.140625 C-2.08119094 4.13482617 -1.01612263 2.10821704 0 0 Z " fill="#508CD4" transform="translate(286,265)"/>
<path d="M0 0 C4.47166689 1.68232302 8.68081543 3.78346742 12.9375 5.9375 C13.62779297 6.28490234 14.31808594 6.63230469 15.02929688 6.99023438 C16.04926758 7.50360352 16.04926758 7.50360352 17.08984375 8.02734375 C17.7554834 8.36024414 18.42112305 8.69314453 19.10693359 9.03613281 C20.80801447 9.90224931 22.48586142 10.81364229 24.16015625 11.73046875 C28.74024981 13.77796587 33.07819041 13.55580613 38 13 C41.45128672 11.66792442 43.40996081 10.59003919 46 8 C47.02480469 8.68707031 48.04960937 9.37414062 49.10546875 10.08203125 C50.46610433 10.99224954 51.82678373 11.90240233 53.1875 12.8125 C53.86103516 13.26431641 54.53457031 13.71613281 55.22851562 14.18164062 C58.76898069 16.54770752 62.32188654 18.85026766 66 21 C64.37885498 25.79821659 61.70723241 29.6672859 58.875 33.8125 C58.40707031 34.50537109 57.93914062 35.19824219 57.45703125 35.91210938 C56.30887563 37.61091105 55.15500633 39.30584864 54 41 C36.50342032 33.3136413 21.4921506 20.87615271 7.4375 8.125 C6.92405029 7.6602124 6.41060059 7.1954248 5.8815918 6.71655273 C3.55802097 4.57632893 1.76413568 2.64620352 0 0 Z " fill="#0571CB" transform="translate(86,426)"/>
<path d="M0 0 C4.31742818 2.2145429 6.89007122 4.93784419 8.875 9.3046875 C9.63270709 14.4758431 9.67996228 19.48676543 7.3125 24.2421875 C3.7660145 28.69802825 0.77519006 30.85193323 -4.77734375 31.71875 C-10.3903989 32.01133724 -14.42739948 31.50855126 -18.75390625 27.7734375 C-23.2128359 22.99692027 -23.6692028 18.22381633 -23.47265625 11.92578125 C-22.79695844 6.83147531 -20.19900685 4.30010848 -16.5625 0.9296875 C-11.21539764 -1.59803362 -5.66435538 -1.8534104 0 0 Z " fill="#FCDE75" transform="translate(263.125,240.6953125)"/>
<path d="M0 0 C0.33 0 0.66 0 1 0 C1 18.81 1 37.62 1 57 C5.62 57 10.24 57 15 57 C15 38.19 15 19.38 15 0 C15.33 0 15.66 0 16 0 C16 27.06 16 54.12 16 82 C10.72 82 5.44 82 0 82 C0 54.94 0 27.88 0 0 Z " fill="#0D62AC" transform="translate(248,143)"/>
<path d="M0 0 C1.24007813 -0.00386719 2.48015625 -0.00773438 3.7578125 -0.01171875 C5.70300781 0.00568359 5.70300781 0.00568359 7.6875 0.0234375 C8.98429687 0.01183594 10.28109375 0.00023437 11.6171875 -0.01171875 C12.85726563 -0.00785156 14.09734375 -0.00398437 15.375 0 C16.51324219 0.00338379 17.65148437 0.00676758 18.82421875 0.01025391 C21.6875 0.3984375 21.6875 0.3984375 23.55078125 1.67724609 C25.15135888 4.10080113 25.14971956 6.51893559 25.28125 9.36328125 C24.27127679 12.82509733 22.84365946 13.65565527 19.6875 15.3984375 C15.67817456 15.9868614 11.73298688 15.9563681 7.6875 15.8984375 C6.06714844 15.92164063 6.06714844 15.92164063 4.4140625 15.9453125 C-0.2349194 15.92235456 -3.41426423 15.89442934 -7.53125 13.62109375 C-9.42934403 11.25263871 -9.95065974 10.32364187 -9.8125 7.3359375 C-9.3125 3.3984375 -9.3125 3.3984375 -8.17578125 1.67724609 C-5.44941518 -0.19391552 -3.28285262 0.00975933 0 0 Z " fill="#080405" transform="translate(416.3125,248.6015625)"/>
<path d="M0 0 C1.24007812 -0.00386719 2.48015625 -0.00773438 3.7578125 -0.01171875 C5.70300781 0.00568359 5.70300781 0.00568359 7.6875 0.0234375 C8.98429687 0.01183594 10.28109375 0.00023437 11.6171875 -0.01171875 C12.85726562 -0.00785156 14.09734375 -0.00398437 15.375 0 C16.51324219 0.00338379 17.65148437 0.00676758 18.82421875 0.01025391 C21.6875 0.3984375 21.6875 0.3984375 23.55078125 1.67724609 C25.15135888 4.10080113 25.14971956 6.51893559 25.28125 9.36328125 C24.27127679 12.82509733 22.84365946 13.65565527 19.6875 15.3984375 C15.67817456 15.9868614 11.73298688 15.9563681 7.6875 15.8984375 C6.06714844 15.92164063 6.06714844 15.92164063 4.4140625 15.9453125 C-0.2349194 15.92235456 -3.41426423 15.89442934 -7.53125 13.62109375 C-9.42934403 11.25263871 -9.95065974 10.32364187 -9.8125 7.3359375 C-9.3125 3.3984375 -9.3125 3.3984375 -8.17578125 1.67724609 C-5.44941518 -0.19391552 -3.28285262 0.00975933 0 0 Z " fill="#080808" transform="translate(80.3125,248.6015625)"/>
<path d="M0 0 C3.25885 1.30354 6.00042816 2.4636583 8.98828125 4.1640625 C9.69404297 4.56367188 10.39980469 4.96328125 11.12695312 5.375 C11.84818359 5.7875 12.56941406 6.2 13.3125 6.625 C14.05306641 7.04523438 14.79363281 7.46546875 15.55664062 7.8984375 C17.37269011 8.92948495 19.18656533 9.96436046 21 11 C20.44010697 14.99012371 19.24330232 17.5255052 16.9375 20.8125 C16.11572266 21.99779297 16.11572266 21.99779297 15.27734375 23.20703125 C14.85582031 23.79871094 14.43429687 24.39039063 14 25 C7 21 0 17 -7 13 C-3.535 6.565 -3.535 6.565 0 0 Z " fill="#0570C9" transform="translate(286,265)"/>
<path d="M0 0 C2.5625 2.125 2.5625 2.125 4 5 C4.0625 8.0625 4.0625 8.0625 3 11 C0.875 13.125 0.875 13.125 -2 15 C-2.54140625 15.37382812 -3.0828125 15.74765625 -3.640625 16.1328125 C-7.80727491 18.81673564 -10.93823417 19.68139155 -16 19 C-18.90085398 17.35618275 -19.04170295 15.85925254 -20 12.625 C-20 9 -20 9 -18 6.3125 C-11.98834863 1.67851874 -7.81980973 -1.15374242 0 0 Z " fill="#060304" transform="translate(414,160)"/>
<path d="M0 0 C4.86085599 2.25657256 8.99917865 4.49876797 12 9 C12.45667063 12.5772533 12.43777431 14.33458305 10.4375 17.375 C6.9112827 19.72581153 5.20071609 19.67753485 1 19 C-4.14937772 16.57400138 -9.00073056 13.98898086 -12 9 C-11.87426834 5.9195743 -11.45859649 3.80928792 -9.9375 1.125 C-6.64757528 -0.78527887 -3.60992026 -0.76189272 0 0 Z " fill="#050606" transform="translate(106,160)"/>
<path d="M0 0 C3.7304183 1.34930024 4.780494 2.7550908 6.9375 6.0625 C7.31132812 6.60390625 7.68515625 7.1453125 8.0703125 7.703125 C10.7493607 11.86220683 11.69962827 15.01340018 10.9375 20.0625 C9.3125 22.5 9.3125 22.5 6.9375 24.0625 C3.9375 24.5625 3.9375 24.5625 0.9375 24.0625 C-3.46038171 20.86404057 -7.33672256 15.24209642 -8.5546875 9.90625 C-8.79021641 6.19320602 -8.31226277 4.36368452 -5.9375 1.5 C-3.0625 0.0625 -3.0625 0.0625 0 0 Z " fill="#050606" transform="translate(168.0625,93.9375)"/>
<path d="M0 0 C2.4375 1.625 2.4375 1.625 4 4 C4.57464378 7.4478627 4.5783826 9.17014671 2.5625 12.0625 C-2.27399304 15.71936059 -6.76279668 18.63324536 -12.8125 19.625 C-16 19 -16 19 -18.5 16.875 C-20 14 -20 14 -20.0625 10.9375 C-18.71319976 7.2070817 -17.3074092 6.157006 -14 4 C-13.45859375 3.62617188 -12.9171875 3.25234375 -12.359375 2.8671875 C-8.20029317 0.1881393 -5.04909982 -0.76212827 0 0 Z " fill="#050505" transform="translate(114,333)"/>
<path d="M0 0 C4.3986399 1.31023316 4.3986399 1.31023316 5.9375 3.875 C7.23461037 10.79292197 3.7701405 16.2519289 -0.0625 21.875 C-3.55374017 24.20249345 -4.95472251 24.37799316 -9.0625 23.875 C-11.4375 22.3125 -11.4375 22.3125 -13.0625 19.875 C-14.26703426 13.8523287 -11.8214885 10.0790116 -8.765625 5.109375 C-6.12941791 1.65086478 -4.45236238 -0.18172908 0 0 Z " fill="#050203" transform="translate(346.0625,94.125)"/>
<path d="M0 0 C3.4375 0.9375 3.4375 0.9375 5.375 2.0625 C7.1087306 5.12202459 6.85895216 7.50567525 6.4375 10.9375 C4.8125 13.375 4.8125 13.375 2.4375 14.9375 C-1.19882575 15.54355429 -2.84564769 15.40911336 -5.9375 13.375 C-8.18590519 10.00239221 -8.13033945 7.91237617 -7.5625 3.9375 C-5.29401339 0.30792142 -4.30870043 -0.07559124 0 0 Z " fill="#060603" transform="translate(256.5625,466.0625)"/>
<path d="M0 0 C2.24940295 -0.08119503 4.49964871 -0.13927819 6.75 -0.1875 C8.00296875 -0.22230469 9.2559375 -0.25710938 10.546875 -0.29296875 C14.14109357 0.01197061 15.44725126 0.54394629 18 3 C17.67 3.66 17.34 4.32 17 5 C16.443125 4.79503906 15.88625 4.59007812 15.3125 4.37890625 C10.16382446 2.56121505 5.43723984 1.49429453 0 1 C0 0.67 0 0.34 0 0 Z " fill="#D5DEE1" transform="translate(252,287)"/>
</svg>
