<?xml version="1.0" encoding="UTF-8"?>
<svg version="1.1" xmlns="http://www.w3.org/2000/svg" width="512" height="512">
<path d="M0 0 C0.95729785 -0.00453111 1.9145957 -0.00906223 2.90090257 -0.01373065 C6.09335267 -0.02634244 9.28563146 -0.02475634 12.47810364 -0.02310181 C14.77343463 -0.02908911 17.06876362 -0.03589512 19.36408997 -0.04345703 C25.58950797 -0.06110487 31.81487097 -0.06581194 38.04031157 -0.0670886 C41.93338767 -0.06851159 45.82644984 -0.07278403 49.71952248 -0.07808304 C62.61073204 -0.09562621 75.50190264 -0.10492379 88.39312359 -0.10342209 C89.08712892 -0.10334218 89.78113425 -0.10326227 90.49617004 -0.10317993 C91.53846068 -0.10305729 91.53846068 -0.10305729 92.60180769 -0.10293217 C103.85403017 -0.10211988 115.10611859 -0.121246 126.35830232 -0.14945666 C137.93334701 -0.17824594 149.50832031 -0.19162809 161.0834015 -0.19026911 C167.57330315 -0.1897602 174.06305307 -0.19540419 180.5529232 -0.21662521 C186.66055772 -0.23605145 192.76789647 -0.23610184 198.87554169 -0.22159195 C201.10993445 -0.21950813 203.34434595 -0.22417911 205.57870674 -0.23631287 C217.13900715 -0.2949966 227.38686221 -0.25765037 238.20393372 4.26742554 C239.10082004 4.62467524 239.99770636 4.98192493 240.92177105 5.35000038 C255.04440597 11.25239539 264.2075598 24.05343833 270.07893372 37.64242554 C272.42432735 43.40494898 273.33517044 48.31290794 273.26121521 54.53826904 C273.24932663 55.80241638 273.23743805 57.06656372 273.22518921 58.36901855 C273.21642824 59.04671421 273.20766727 59.72440987 273.19864082 60.42264175 C273.16062819 63.37180518 273.13423091 66.32104506 273.10692191 69.27032399 C273.09209398 70.8583841 273.07666314 72.44643868 273.06067109 74.03448749 C272.95954329 84.24659285 272.93560188 94.45902121 272.90754819 104.67154384 C272.87974241 114.604832 272.82809683 124.536536 272.70002747 134.46908569 C272.59831578 142.36854708 272.55034763 150.26630829 272.56424367 158.16644061 C272.56964527 162.34072514 272.5490953 166.51103128 272.4633522 170.68452072 C271.31458576 190.51603291 271.31458576 190.51603291 279.44739342 207.65719032 C281.97608475 209.95897403 284.61612713 211.96593546 287.43006516 213.9041481 C303.66678471 226.38261121 312.95723171 255.90241721 315.73518372 275.45492554 C319.71433342 310.60408129 310.97449628 344.09049958 288.89143372 371.82992554 C268.42684752 396.13162164 240.71387789 411.75385864 209.20393372 416.26742554 C192.1239004 417.1788132 174.6479074 417.43665554 158.20393372 412.26742554 C157.17042786 411.94596558 157.17042786 411.94596558 156.11604309 411.61801147 C144.86614205 407.99632356 134.04357751 402.82718807 124.20393372 396.26742554 C121.72887674 395.96408574 121.72887674 395.96408574 118.91268921 396.00914001 C117.2665136 395.99889801 117.2665136 395.99889801 115.58708191 395.9884491 C114.38242279 395.99100204 113.17776367 395.99355499 111.93659973 395.9961853 C109.98905038 395.98816144 108.04150103 395.9801352 106.09395206 395.97202003 C103.998512 395.96516014 101.90311558 395.96316444 99.80766487 395.96246529 C95.43121514 395.96052274 91.0549234 395.94245555 86.67852783 395.92170715 C75.80013877 395.87252708 64.92170642 395.84172302 54.04322815 395.82040405 C45.60318879 395.80383179 37.16328419 395.7808533 28.72333473 395.73738331 C24.38375262 395.7157389 20.04442729 395.70753689 15.704795 395.70977604 C12.34839819 395.70769878 8.99216518 395.68629767 5.63581848 395.6680603 C4.44937744 395.67263748 3.2629364 395.67721466 2.0405426 395.68193054 C-14.55911755 395.53929914 -28.53721906 390.15214277 -40.58512878 378.57211304 C-53.22828361 365.3928527 -58.10916852 351.03027981 -58.07022095 333.05549622 C-58.07545763 331.85036395 -58.0806943 330.64523168 -58.08608967 329.40358025 C-58.09844485 326.07987042 -58.10193461 322.75637275 -58.10149276 319.43265474 C-58.10314863 315.83940688 -58.11622947 312.24619685 -58.12768555 308.65296936 C-58.15047604 300.80557133 -58.15844983 292.95820044 -58.16351199 285.1107738 C-58.16677616 280.20406936 -58.17330298 275.29737271 -58.18051338 270.39067268 C-58.20007208 256.78592273 -58.21648039 243.18117998 -58.21938992 229.57641506 C-58.21957749 228.70684321 -58.21976506 227.83727137 -58.21995831 226.94134885 C-58.22032454 225.17877233 -58.22068824 223.41619581 -58.22104942 221.65361928 C-58.22123223 220.7787608 -58.22141504 219.90390231 -58.22160339 219.00253296 C-58.22178394 218.12659747 -58.22196449 217.25066198 -58.22215051 216.34818298 C-58.22568966 202.16547038 -58.2526991 187.98290983 -58.29010128 173.80024993 C-58.32825849 159.21367956 -58.34754794 144.62718451 -58.34784943 130.04056317 C-58.34843235 121.86097008 -58.3568175 113.6815584 -58.38584709 105.50201225 C-58.4104605 98.53512645 -58.41757722 91.56848822 -58.40259957 84.6015706 C-58.39547086 81.05310275 -58.39611072 77.50512276 -58.41901016 73.95671082 C-58.53707541 54.48437681 -57.88814591 38.40831385 -45.79606628 22.26742554 C-45.33587097 21.62547241 -44.87567566 20.98351929 -44.40153503 20.32211304 C-33.78771779 6.6801462 -16.84909066 -0.05915316 0 0 Z " fill="#B9D6FF" transform="translate(126.79606628417969,47.732574462890625)"/>
<path d="M0 0 C1.11375 0.81017578 1.11375 0.81017578 2.25 1.63671875 C26.47879101 19.50545212 42.15059259 47.54594363 47.2265625 77.04296875 C51.9216352 110.08905737 44.34702889 142.83183178 25 170 C4.36620786 197.35716261 -25.01258826 215.13155416 -59 220 C-76.08003332 220.91138766 -93.55602632 221.16923001 -110 216 C-110.68900391 215.78569336 -111.37800781 215.57138672 -112.08789062 215.35058594 C-123.33779166 211.72889802 -134.16035621 206.55976253 -144 200 C-144 199.34 -144 198.68 -144 198 C-144.84884766 197.61134766 -144.84884766 197.61134766 -145.71484375 197.21484375 C-159.82848569 189.71169393 -170.34631817 176.0740223 -179 163 C-179.57621094 162.14664063 -180.15242188 161.29328125 -180.74609375 160.4140625 C-196.49585899 135.78715685 -202.18556656 101.86201612 -196.1015625 73.41796875 C-187.88774216 38.95290423 -168.67482556 11.01723447 -138.64453125 -8.140625 C-95.88274889 -33.92426978 -39.31287653 -30.9336897 0 0 Z " fill="#549BFF" transform="translate(395,244)"/>
<path d="M0 0 C1.09905518 -0.0083016 1.09905518 -0.0083016 2.22031349 -0.0167709 C4.65861606 -0.03030953 7.09588288 -0.01544619 9.53416443 -0.00050354 C11.28899061 -0.00428917 13.0438138 -0.00979122 14.79862976 -0.01687622 C19.55272629 -0.03081525 24.30646029 -0.01967241 29.06053662 -0.00316501 C34.03986206 0.01070454 39.01916685 0.00422332 43.99850464 0.0007019 C52.35859507 -0.00199846 60.71854179 0.01146131 69.07859802 0.03465271 C78.74044198 0.06127003 88.40204581 0.06300612 98.06391388 0.05126435 C107.36456977 0.04048159 116.66513889 0.04667699 125.96578789 0.06081963 C129.92140189 0.06657422 133.87695229 0.0665009 137.83256721 0.06175423 C142.49068571 0.05697843 147.14854156 0.06711114 151.80661011 0.08870888 C153.51501009 0.09426837 155.22343535 0.09474973 156.93183708 0.08975601 C159.26588366 0.08378958 161.59913084 0.09633354 163.93310547 0.11352539 C165.89118307 0.11717023 165.89118307 0.11717023 167.88881779 0.12088871 C172.35123419 0.6038182 175.74739823 1.95565809 179.04759216 5.03636169 C183.23670643 10.5144342 184.02458493 13.68746063 183.40306091 20.50120544 C181.577715 25.77442697 178.79586888 28.2981163 174.40306091 31.50120544 C170.86099657 32.68189356 168.041109 32.63915638 164.30059814 32.65510559 C163.57272352 32.65948784 162.8448489 32.6638701 162.09491748 32.66838515 C159.64920812 32.68176894 157.20353479 32.68795107 154.75779724 32.69407654 C153.00680885 32.70197788 151.25582209 32.71024685 149.50483704 32.71885681 C143.74827123 32.74507461 137.99169816 32.76038482 132.23509216 32.77464294 C130.25318077 32.78000284 128.27126943 32.78538035 126.28935814 32.7907753 C118.044598 32.81240421 109.79983981 32.83114056 101.55505848 32.84239769 C89.74098802 32.85863443 77.92724657 32.89180548 66.11330014 32.94879854 C57.80575233 32.98750877 49.49829248 33.00703171 41.19065684 33.01231825 C36.22938028 33.01597039 31.26845466 33.02797701 26.30727577 33.06042099 C21.63765518 33.09052038 16.96859754 33.09680679 12.2989006 33.08503723 C10.58808861 33.08481665 8.87725036 33.09310905 7.1665287 33.11069107 C-8.40616477 33.26198584 -8.40616477 33.26198584 -14.21072865 28.95285988 C-17.84408783 25.14796719 -19.33566398 21.12691722 -20.15943909 16.00120544 C-19.41863699 11.39177019 -17.80229142 7.91789969 -14.59693909 4.50120544 C-9.49800075 1.10803812 -6.25568371 0.00100264 0 0 Z " fill="#549BFF" transform="translate(152.59693908691406,111.49879455566406)"/>
<path d="M0 0 C0.90500748 -0.00861557 1.81001495 -0.01723114 2.7424469 -0.02610779 C5.71799767 -0.04871026 8.69260222 -0.04203919 11.66821289 -0.03295898 C13.74654926 -0.03819722 15.82488324 -0.04447443 17.9032135 -0.05174255 C22.25329802 -0.06213633 26.60305521 -0.05760004 30.953125 -0.04296875 C36.51605588 -0.02578572 42.0779534 -0.04927617 47.640769 -0.08445835 C51.93118581 -0.10646378 56.22135657 -0.10498315 60.51181221 -0.09669304 C62.56224259 -0.09587519 64.61269134 -0.10270663 66.66306877 -0.11746407 C69.53513178 -0.13496727 72.40535335 -0.12031932 75.27734375 -0.09765625 C76.11655365 -0.10934845 76.95576355 -0.12104065 77.82040405 -0.13308716 C83.85962517 -0.03657422 88.06193475 1.62225746 92.70336914 5.53344727 C95.40980349 8.72793363 96.59682051 11.80092545 97.20336914 15.97094727 C96.47865299 21.13454986 95.07260768 25.46887813 91.04005432 28.9828701 C85.71323925 32.48503456 81.60069299 33.25663294 75.29321289 33.18041992 C74.38805939 33.18918152 73.48290588 33.19794312 72.55032349 33.20697021 C69.58000715 33.22884572 66.61119867 33.21445362 63.64086914 33.19750977 C61.56396196 33.2008813 59.48705671 33.20573673 57.41015625 33.21200562 C53.06597025 33.21936091 48.72229971 33.20871451 44.37817383 33.18530273 C38.82308417 33.15681614 33.2692025 33.17322727 27.7141571 33.20316505 C23.4280088 33.22127417 19.14214464 33.21546336 14.85598755 33.20252609 C12.80835831 33.19920208 10.76070287 33.2032436 8.71310425 33.21492386 C5.84588767 33.22769204 2.98059916 33.20817228 0.11352539 33.18041992 C-1.14293289 33.19560165 -1.14293289 33.19560165 -2.42477417 33.21109009 C-8.41348406 33.10425921 -12.74163741 31.50269677 -17.29663086 27.53344727 C-20.68250333 22.81709649 -22.23652057 18.38164992 -21.29663086 12.53344727 C-17.121956 2.72480855 -10.10031581 -0.07835326 0 0 Z " fill="#549BFF" transform="translate(154.296630859375,175.466552734375)"/>
<path d="M0 0 C4.98669007 2.49334503 8.49675474 5.99350949 11 11 C11.08639869 13.40838678 11.11567764 15.78733881 11.09765625 18.1953125 C11.0962413 18.90275604 11.09482635 19.61019958 11.09336853 20.33908081 C11.087766 22.60109669 11.07521318 24.86301398 11.0625 27.125 C11.05748532 28.65755065 11.05292236 30.19010286 11.04882812 31.72265625 C11.03779577 35.48180888 11.02052952 39.24088772 11 43 C11.81154541 42.98428955 12.62309082 42.9685791 13.45922852 42.95239258 C17.16024724 42.88977093 20.86115417 42.85092228 24.5625 42.8125 C25.83931641 42.78736328 27.11613281 42.76222656 28.43164062 42.73632812 C42.23086515 42.6288017 42.23086515 42.6288017 47.9609375 47.75390625 C48.42757812 48.35074219 48.89421875 48.94757813 49.375 49.5625 C49.85710937 50.16191406 50.33921875 50.76132812 50.8359375 51.37890625 C53.46570937 55.04117244 53.68949096 58.62556291 53 63 C51.00255225 67.49825234 48.35608878 71.53154969 44 74 C41.07365532 74.97544823 39.06729764 75.15998838 36.01293945 75.22460938 C34.49039299 75.25838684 34.49039299 75.25838684 32.93708801 75.29284668 C28.29024894 75.36401193 23.64356635 75.42137665 18.99633789 75.45996094 C16.5491986 75.48655851 14.10217121 75.52747258 11.65551758 75.58300781 C8.12014629 75.66228801 4.58691217 75.69529651 1.05078125 75.71875 C-0.03595383 75.75174194 -1.1226889 75.78473389 -2.24235535 75.81872559 C-9.00498781 75.80101864 -12.60659326 74.65855333 -17.47834778 69.89660645 C-20.43857304 66.20694449 -21.25115258 63.49944572 -21.29052734 58.77587891 C-21.30328705 57.73444733 -21.31604675 56.69301575 -21.32919312 55.62002563 C-21.33141876 54.5001828 -21.33364441 53.38033997 -21.3359375 52.2265625 C-21.3425943 51.07006195 -21.3492511 49.9135614 -21.35610962 48.72201538 C-21.36623323 46.27595612 -21.37092673 43.82986925 -21.37060547 41.38378906 C-21.37497542 37.64602008 -21.41129148 33.90943483 -21.44921875 30.171875 C-21.45508759 27.79427487 -21.45905653 25.41666913 -21.4609375 23.0390625 C-21.47530853 21.92326813 -21.48967957 20.80747375 -21.50448608 19.65786743 C-21.46801846 13.44840315 -21.19638965 9.70114633 -17 5 C-11.37343316 0.04326255 -7.41017624 -0.82081952 0 0 Z " fill="#B9D6FF" transform="translate(325,282)"/>
<path d="M0 0 C2.02454215 0.01386839 4.04445031 -0.02026004 6.06860352 -0.05834961 C13.54819475 -0.04719159 19.49811861 0.21374083 25.09399414 5.57641602 C27.77842811 8.79686756 28.98550468 11.83055097 29.59399414 16.01391602 C28.86883079 21.1807049 27.40005605 25.29645467 23.62719727 29.02661133 C17.53550699 33.3831546 11.42084073 33.34396534 4.11254883 33.22827148 C2.09664055 33.20145122 0.08629566 33.22809963 -1.92944336 33.26000977 C-9.3073272 33.22319398 -15.44107511 32.97949335 -20.90600586 27.57641602 C-24.2661937 22.82246384 -25.85103605 18.4566039 -24.90600586 12.57641602 C-22.795848 7.61847874 -20.14627141 3.98077934 -15.29443359 1.37255859 C-10.35993004 -0.27227592 -5.1542717 -0.04927841 0 0 Z " fill="#559BFF" transform="translate(157.906005859375,239.423583984375)"/>
</svg>
