<?xml version="1.0" encoding="UTF-8"?>
<svg version="1.1" xmlns="http://www.w3.org/2000/svg" width="512" height="512">
<path d="M0 0 C46.06588106 40.99254614 74.71641846 98.55150352 82.33837891 159.53417969 C82.4326416 160.2219751 82.5269043 160.90977051 82.62402344 161.6184082 C90.61233504 227.74705213 70.42527854 295.35637488 29.89697266 347.68652344 C25.59802061 353.01722398 21.07611553 358.13372554 16.45947266 363.19042969 C14.52006388 365.33342281 12.64508592 367.51762607 10.77587891 369.72167969 C7.89614331 373.02412877 4.80809232 375.8885979 1.46337891 378.71386719 C0.03772869 379.93510432 -1.35850794 381.19147069 -2.72412109 382.47949219 C-36.03265536 413.8218977 -80.91442787 434.50377955 -125.66162109 442.53417969 C-126.31630371 442.65806061 -126.97098633 442.78194153 -127.64550781 442.90957642 C-141.3789686 445.46240018 -154.86256945 446.0322729 -168.81347656 445.98022461 C-172.26216972 445.97173984 -175.70918471 446.0005639 -179.15771484 446.03222656 C-235.75922465 446.21117164 -290.86486772 425.02374575 -334.66162109 389.53417969 C-335.21140625 389.08880859 -335.76119141 388.6434375 -336.32763672 388.18457031 C-350.04361712 376.96815727 -362.84663533 364.591609 -373.66162109 350.53417969 C-374.43376953 349.57898438 -375.20591797 348.62378906 -376.00146484 347.63964844 C-407.573641 307.98738929 -428.50724676 255.40476212 -428.89990234 204.44824219 C-428.91459312 202.87817917 -428.91459312 202.87817917 -428.92958069 201.27639771 C-429.25364867 157.69157319 -429.25364867 157.69157319 -424.66162109 137.53417969 C-424.44731445 136.56351563 -424.23300781 135.59285156 -424.01220703 134.59277344 C-408.5852648 66.41781473 -366.90511932 9.0581787 -308.35620117 -28.63452148 C-280.50999441 -46.02205904 -249.06570904 -58.10582905 -216.66162109 -63.46582031 C-215.68966797 -63.62663086 -214.71771484 -63.78744141 -213.71630859 -63.953125 C-135.77122899 -76.16351376 -58.75437363 -51.83092261 0 0 Z M-217.66162109 47.53417969 C-218.27650391 48.0665625 -218.89138672 48.59894531 -219.52490234 49.14746094 C-232.1939173 60.91756574 -238.27473499 77.55132801 -239.94677734 94.40917969 C-240.51961522 111.1460082 -234.31777391 127.7407861 -223.56396484 140.51855469 C-210.94523675 153.88870602 -195.9617169 162.43098129 -177.35693359 163.77246094 C-158.06058555 164.17358852 -139.82936418 158.08270323 -125.66162109 144.53417969 C-112.43187043 130.93693595 -106.15164369 113.2521116 -106.30737305 94.54077148 C-106.81159302 76.70421274 -114.89549765 59.95593757 -127.66162109 47.53417969 C-142.64444923 34.81200299 -159.978783 29.17270627 -179.43066406 30.32275391 C-193.78546187 31.68314512 -206.91350631 38.11658588 -217.66162109 47.53417969 Z M-206.66162109 177.53417969 C-207.38784668 177.69515137 -208.11407227 177.85612305 -208.86230469 178.02197266 C-238.22344438 184.75285714 -263.03675496 199.92586709 -284.66162109 220.53417969 C-285.38091797 221.200625 -286.10021484 221.86707031 -286.84130859 222.55371094 C-309.68851004 244.34572035 -325.69398315 277.32209453 -329.66162109 308.53417969 C-329.70120289 310.86717727 -329.71182044 313.20138641 -329.66162109 315.53417969 C-296.81833319 333.79178383 -258.55320406 342.29849706 -221.53662109 346.78417969 C-220.85368988 346.86726379 -220.17075867 346.9503479 -219.46713257 347.03594971 C-204.2657974 348.86037587 -189.14924167 349.74449015 -173.84912109 349.72167969 C-172.71118607 349.72077332 -172.71118607 349.72077332 -171.55026245 349.71984863 C-121.45214203 349.61252029 -71.65676461 340.70364205 -25.66162109 320.53417969 C-24.86675293 320.18935547 -24.07188477 319.84453125 -23.25292969 319.48925781 C-19.31885114 317.74010913 -19.31885114 317.74010913 -16.41870117 314.68408203 C-15.53143744 312.16449337 -15.6395524 310.79447378 -16.13037109 308.18261719 C-16.36385254 306.91949707 -16.36385254 306.91949707 -16.60205078 305.63085938 C-16.78670898 304.73270508 -16.97136719 303.83455078 -17.16162109 302.90917969 C-17.34885742 301.97493164 -17.53609375 301.04068359 -17.72900391 300.078125 C-23.48089439 272.67533818 -36.02948125 248.34052787 -54.66162109 227.53417969 C-55.76957031 226.22707031 -55.76957031 226.22707031 -56.89990234 224.89355469 C-79.85193206 198.20709967 -115.06739327 180.46457023 -149.66162109 175.53417969 C-150.29487305 175.44281738 -150.928125 175.35145508 -151.58056641 175.25732422 C-169.66465937 172.92509982 -188.8744455 173.48084504 -206.66162109 177.53417969 Z " fill="#2096F3" transform="translate(428.66162109375,66.4658203125)"/>
</svg>
