<?xml version="1.0" encoding="UTF-8"?>
<svg version="1.1" xmlns="http://www.w3.org/2000/svg" width="48" height="48">
<path d="M0 0 C3.81227054 0.0968635 6.1462875 0.89741948 9.1875 3.3125 C11.1326 6.23015 11.64026317 7.93787285 12.1875 11.3125 C12.5175 10.9825 12.8475 10.6525 13.1875 10.3125 C15.18359375 10.328125 15.18359375 10.328125 17.625 10.5625 C18.42808594 10.62953125 19.23117188 10.6965625 20.05859375 10.765625 C22.1875 11.3125 22.1875 11.3125 24.1875 14.3125 C24.3828125 16.25 24.3828125 16.25 24.3125 18.3125 C24.29445312 18.993125 24.27640625 19.67375 24.2578125 20.375 C24.23460937 21.014375 24.21140625 21.65375 24.1875 22.3125 C24.08944193 25.67204625 24.08944193 25.67204625 25.1875 30.3125 C9.3475 30.3125 -6.4925 30.3125 -22.8125 30.3125 C-22.4825 28.6625 -22.1525 27.0125 -21.8125 25.3125 C-21.8125 22.99915556 -21.88996543 20.68572605 -22 18.375 C-21.97135878 15.787743 -21.77735197 14.21642872 -20.875 11.75 C-17.80374287 9.60942685 -15.25970909 10.38152566 -11.67578125 10.953125 C-11.06089844 11.07171875 -10.44601562 11.1903125 -9.8125 11.3125 C-9.54695312 10.68601562 -9.28140625 10.05953125 -9.0078125 9.4140625 C-8.65460937 8.59679688 -8.30140625 7.77953125 -7.9375 6.9375 C-7.58945313 6.12539062 -7.24140625 5.31328125 -6.8828125 4.4765625 C-5.02601571 0.72230914 -4.2892457 0.35157752 0 0 Z M-7.8125 19.3125 C-7.4825 20.3025 -7.1525 21.2925 -6.8125 22.3125 C-6.8125 21.3225 -6.8125 20.3325 -6.8125 19.3125 C-7.1425 19.3125 -7.4725 19.3125 -7.8125 19.3125 Z M9.1875 19.3125 C9.1875 22.3125 9.1875 22.3125 9.1875 22.3125 Z " fill="#775346" transform="translate(22.8125,8.6875)"/>
<path d="M0 0 C3.81227054 0.0968635 6.1462875 0.89741948 9.1875 3.3125 C11.40227492 6.63466238 11.48417707 7.86283323 11.5 11.75 C11.52513672 13.17119141 11.52513672 13.17119141 11.55078125 14.62109375 C11.13270068 17.7184864 10.32405329 19.06704472 8.1875 21.3125 C6.125 21.9375 6.125 21.9375 4.1875 22.3125 C3.5275 22.9725 2.8675 23.6325 2.1875 24.3125 C2.1875 23.6525 2.1875 22.9925 2.1875 22.3125 C1.5275 22.3125 0.8675 22.3125 0.1875 22.3125 C-0.1425 22.9725 -0.4725 23.6325 -0.8125 24.3125 C-1.1425 23.3225 -1.4725 22.3325 -1.8125 21.3125 C-2.59625 21.18875 -3.38 21.065 -4.1875 20.9375 C-6.8125 20.3125 -6.8125 20.3125 -8.8125 18.3125 C-9.63448101 12.37715657 -9.1248813 7.40847123 -5.8125 2.3125 C-3.8125 0.3125 -3.8125 0.3125 0 0 Z " fill="#F85520" transform="translate(22.8125,8.6875)"/>
<path d="M0 0 C0.7940625 0.08894531 1.588125 0.17789062 2.40625 0.26953125 C3.59734375 0.38361328 3.59734375 0.38361328 4.8125 0.5 C6.90625 1.08203125 6.90625 1.08203125 8.90625 4.08203125 C9.1015625 6.01953125 9.1015625 6.01953125 9.03125 8.08203125 C9.01320313 8.76265625 8.99515625 9.44328125 8.9765625 10.14453125 C8.94175781 11.10359375 8.94175781 11.10359375 8.90625 12.08203125 C8.80819193 15.4415775 8.80819193 15.4415775 9.90625 20.08203125 C5.94625 20.08203125 1.98625 20.08203125 -2.09375 20.08203125 C-4.98277674 13.84173349 -5.76672386 8.8493992 -4.09375 2.08203125 C-2.09375 0.08203125 -2.09375 0.08203125 0 0 Z " fill="#775346" transform="translate(38.09375,18.91796875)"/>
<path d="M0 0 C0.99 0.309375 1.98 0.61875 3 0.9375 C3.99 0.2775 4.98 -0.3825 6 -1.0625 C9.01436022 -0.30890995 10.64973906 0.5751611 12.8125 2.8125 C14 4.9375 14 4.9375 14 8.9375 C6.08 8.9375 -1.84 8.9375 -10 8.9375 C-8.84671533 2.01779197 -8.84671533 2.01779197 -6 -0.0625 C-3 -1.0625 -3 -1.0625 0 0 Z " fill="#838690" transform="translate(22,30.0625)"/>
<path d="M0 0 C2 1.0625 2 1.0625 4 3 C4.375 6.5625 4.375 6.5625 4 10 C3.34 10.66 2.68 11.32 2 12 C1.28591666 13.98356483 0.61382258 15.98315437 0 18 C-0.33 17.34 -0.66 16.68 -1 16 C-1.66 16 -2.32 16 -3 16 C-3.33 16.66 -3.66 17.32 -4 18 C-4.474375 16.865625 -4.94875 15.73125 -5.4375 14.5625 C-6.63622083 11.24259834 -6.63622083 11.24259834 -8 10 C-8.5625 7.75 -8.5625 7.75 -8 5 C-5.51472799 2.9932924 -2.8236715 1.48116697 0 0 Z " fill="#F9B14F" transform="translate(26,15)"/>
<path d="M0 0 C3.23180698 0.8618152 5.48261455 1.48261455 7.875 3.875 C9 6 9 6 9 10 C5.04 10 1.08 10 -3 10 C-1.125 2.25 -1.125 2.25 0 0 Z " fill="#788F9B" transform="translate(27,29)"/>
<path d="M0 0 C0.99 0.66 1.98 1.32 3 2 C3.72731707 6.36390242 2.09991849 9.23764604 0 13 C-0.66 13 -1.32 13 -2 13 C-4.03435531 9.27034861 -5 7.33094958 -5 3 C-2.5 1.25 -2.5 1.25 0 0 Z " fill="#F5AC55" transform="translate(41,23)"/>
<path d="M0 0 C0.99 0.66 1.98 1.32 3 2 C3.72731707 6.36390242 2.09991849 9.23764604 0 13 C-0.66 13 -1.32 13 -2 13 C-4.03435531 9.27034861 -5 7.33094958 -5 3 C-2.5 1.25 -2.5 1.25 0 0 Z " fill="#F5AC55" transform="translate(9,23)"/>
<path d="M0 0 C0.66 1.32 1.32 2.64 2 4 C2.66 4 3.32 4 4 4 C4.33 3.01 4.66 2.02 5 1 C6.65 1.33 8.3 1.66 10 2 C10.33 3.65 10.66 5.3 11 7 C7.04 7 3.08 7 -1 7 C-1.33 5.02 -1.66 3.04 -2 1 C-1.34 0.67 -0.68 0.34 0 0 Z " fill="#455A64" transform="translate(37,32)"/>
<path d="M0 0 C0.66 1.32 1.32 2.64 2 4 C2.66 4 3.32 4 4 4 C4.33 3.01 4.66 2.02 5 1 C5.99 1 6.98 1 8 1 C7.67 2.98 7.34 4.96 7 7 C3.04 7 -0.92 7 -5 7 C-4.67 5.35 -4.34 3.7 -4 2 C-1.9375 0.6875 -1.9375 0.6875 0 0 Z " fill="#455963" transform="translate(5,32)"/>
<path d="M0 0 C0.66 1.32 1.32 2.64 2 4 C2.66 4 3.32 4 4 4 C3.67 4.99 3.34 5.98 3 7 C1.68 7 0.36 7 -1 7 C-1.33 5.02 -1.66 3.04 -2 1 C-1.34 0.67 -0.68 0.34 0 0 Z " fill="#50626B" transform="translate(37,32)"/>
<path d="M0 0 C0.99 0 1.98 0 3 0 C2.67 1.98 2.34 3.96 2 6 C0.35 5.67 -1.3 5.34 -3 5 C-3 4.34 -3 3.68 -3 3 C-2.34 3 -1.68 3 -1 3 C-0.67 2.01 -0.34 1.02 0 0 Z " fill="#50646D" transform="translate(10,33)"/>
</svg>
