<?xml version="1.0" encoding="UTF-8"?>
<svg version="1.1" xmlns="http://www.w3.org/2000/svg" width="512" height="512">
<path d="M0 0 C3.84093825 3.51969614 7.05347878 6.75323422 8 12 C9.85625 11.505 9.85625 11.505 11.75 11 C23.01713385 8.57052426 34.12137195 9.62888933 44.31640625 15.28515625 C53.69371833 21.87313088 60.50489491 30.7609983 63 42 C63.91863287 59.54235458 64.03704886 79.50505578 51.90234375 93.40234375 C46.93398637 98.53300681 46.93398637 98.53300681 44 100 C44.66 104.29 45.32 108.58 46 113 C47.29510498 113.41660889 48.59020996 113.83321777 49.92456055 114.26245117 C54.78884336 115.88573814 59.49261578 117.78860213 64.20703125 119.80078125 C65.05367844 120.15963913 65.90032562 120.51849701 66.77262878 120.88822937 C68.55235938 121.64373064 70.33134776 122.40098255 72.10961914 123.15991211 C74.79281101 124.30410404 77.47920986 125.44049649 80.16601562 126.57617188 C112.32515844 140.22310176 112.32515844 140.22310176 119 156 C120.14346098 159.43038294 120.120116 162.0563175 120.11352539 165.67456055 C120.11364593 166.35886296 120.11376646 167.04316538 120.11389065 167.74820423 C120.11314486 169.96107558 120.10553183 172.17386248 120.09765625 174.38671875 C120.0961858 175.75378377 120.09516572 177.12084935 120.09460449 178.48791504 C120.08936359 183.55445195 120.07540238 188.62097681 120.0625 193.6875 C120.041875 205.010625 120.02125 216.33375 120 228 C160.92 228 201.84 228 244 228 C243.84201443 205.74223469 243.84201443 205.74223469 243.63964844 183.48486328 C243.62158203 179.15014648 243.62158203 179.15014648 243.6182251 177.11178589 C243.6121395 175.70800686 243.59819062 174.30424688 243.57769775 172.90060425 C243.42517552 161.88969596 244.29237224 152.38352476 251.875 143.8125 C261.81388905 133.74374559 277.35321577 129.17266428 290.20800781 123.83642578 C293.15683157 122.61178036 296.10202523 121.37869811 299.046875 120.14453125 C300.92948254 119.35888369 302.81228778 118.57370964 304.6953125 117.7890625 C305.57132111 117.42245514 306.44732971 117.05584778 307.34988403 116.6781311 C308.16528656 116.34042694 308.98068909 116.00272278 309.82080078 115.65478516 C310.53358185 115.35835114 311.24636292 115.06191711 311.98074341 114.75650024 C313.96891888 114.01164432 315.93163959 113.47174024 318 113 C319.20671014 108.63879216 320.08535714 104.53993289 320 100 C318.35021438 97.58360204 316.62742652 96.33913254 314.23828125 94.66796875 C306.22032748 88.69298401 303.27469516 78.59596957 301.8125 69.1875 C300.07200302 54.29658143 298.81528515 39.61501291 307.75 26.75 C314.87388085 18.01519132 323.63776522 11.62035348 335 10 C345.28302838 9.0234822 355.70883324 10.64304527 364.3125 16.6875 C372.59253711 23.65463482 378.62807523 31.31585423 381 42 C381.91863287 59.54235458 382.03704886 79.50505578 369.90234375 93.40234375 C364.93398637 98.53300681 364.93398637 98.53300681 362 100 C362.66 104.29 363.32 108.58 364 113 C365.27037109 113.40758545 366.54074219 113.8151709 367.84960938 114.23510742 C373.1385309 116.00033851 378.26584611 118.08355602 383.40625 120.23828125 C384.37099243 120.64153122 385.33573486 121.04478119 386.32971191 121.46025085 C388.35747026 122.30977399 390.3844374 123.16118795 392.41064453 124.0144043 C395.48744952 125.3072265 398.56972853 126.58633973 401.65234375 127.86523438 C403.63316551 128.69707656 405.61364591 129.52973217 407.59375 130.36328125 C408.50338501 130.73850418 409.41302002 131.11372711 410.35021973 131.50032043 C420.01270467 135.60683186 427.65839017 140.54452022 434 149 C451.70987992 193.2746998 438 244.31468896 438 292 C269.04 292 100.08 292 -74 292 C-74 151.79039779 -74 151.79039779 -63.80810547 141.46533203 C-54.13532822 132.97326938 -39.54154529 128.71386117 -27.79199219 123.83642578 C-24.84316843 122.61178036 -21.89797477 121.37869811 -18.953125 120.14453125 C-17.07051746 119.35888369 -15.18771222 118.57370964 -13.3046875 117.7890625 C-12.42867889 117.42245514 -11.55267029 117.05584778 -10.65011597 116.6781311 C-9.83471344 116.34042694 -9.01931091 116.00272278 -8.17919922 115.65478516 C-7.46641815 115.35835114 -6.75363708 115.06191711 -6.01925659 114.75650024 C-4.03108112 114.01164432 -2.06836041 113.47174024 0 113 C1.20706155 108.63752211 2.09560562 104.54126705 2 100 C-0.11935536 96.84292918 -2.86927539 95.08908947 -6 93 C-12.04165631 86.45487233 -14.55841927 79.2470207 -15.75 70.5625 C-15.87503906 69.76779297 -16.00007813 68.97308594 -16.12890625 68.15429688 C-16.93328435 62.72253484 -17.10988496 57.48875389 -17 52 C-18.134375 52.0825 -19.26875 52.165 -20.4375 52.25 C-28.35994161 52.20808232 -34.59429081 48.18675112 -40.2734375 42.9375 C-46.12464045 36.3714442 -47.35734097 28.97089889 -47.28125 20.4296875 C-46.65507169 12.79379093 -43.54813211 6.30154846 -38 1 C-26.00494861 -7.39419776 -12.32001886 -8.40563159 0 0 Z " fill="#A96950" transform="translate(74,220)"/>
<path d="M0 0 C1.68996094 0.54333984 1.68996094 0.54333984 3.4140625 1.09765625 C15.36806343 5.30580693 26.37106042 11.77931484 36 20 C36.79792969 20.65355469 37.59585938 21.30710937 38.41796875 21.98046875 C53.99020383 35.23497582 64.68012417 53.36861506 70 73 C70.31839844 74.12019531 70.63679687 75.24039063 70.96484375 76.39453125 C77.46624566 103.08922757 72.3138876 131.17174328 58.96875 154.84765625 C42.53939982 181.15417529 17.74174075 197.74825889 -12.19140625 204.74609375 C-39.15562063 209.73946678 -67.93706088 204.03015945 -90.74316406 188.83886719 C-114.62531288 172.13643494 -130.80610642 148.1505609 -136.08203125 119.3828125 C-137.08704091 113.12807692 -137.34606322 107.01466121 -137.3125 100.6875 C-137.30831055 99.59735596 -137.30412109 98.50721191 -137.29980469 97.3840332 C-137.18165804 88.91455233 -136.31052161 81.18184708 -134 73 C-133.73316406 72.00742188 -133.46632812 71.01484375 -133.19140625 69.9921875 C-129.08212247 56.29457489 -122.11863543 43.96109944 -113 33 C-111.90171875 31.67355469 -111.90171875 31.67355469 -110.78125 30.3203125 C-84.43369948 -0.20202595 -38.32298426 -12.90122539 0 0 Z " fill="#68D845" transform="translate(288,4)"/>
<path d="M0 0 C3.84093825 3.51969614 7.05347878 6.75323422 8 12 C9.85625 11.505 9.85625 11.505 11.75 11 C23.01713385 8.57052426 34.12137195 9.62888933 44.31640625 15.28515625 C53.69371833 21.87313088 60.50489491 30.7609983 63 42 C63.91863287 59.54235458 64.03704886 79.50505578 51.90234375 93.40234375 C46.93398637 98.53300681 46.93398637 98.53300681 44 100 C44.66 104.29 45.32 108.58 46 113 C47.29510498 113.41660889 48.59020996 113.83321777 49.92456055 114.26245117 C54.78884336 115.88573814 59.49261578 117.78860213 64.20703125 119.80078125 C65.05367844 120.15963913 65.90032562 120.51849701 66.77262878 120.88822937 C68.55235938 121.64373064 70.33134776 122.40098255 72.10961914 123.15991211 C74.79281101 124.30410404 77.47920986 125.44049649 80.16601562 126.57617188 C112.32515844 140.22310176 112.32515844 140.22310176 119 156 C126.69559759 179.08679276 120 204.66438367 120 229 C55.98 229 -8.04 229 -74 229 C-74 151.79039779 -74 151.79039779 -63.80810547 141.46533203 C-54.13532822 132.97326938 -39.54154529 128.71386117 -27.79199219 123.83642578 C-24.84316843 122.61178036 -21.89797477 121.37869811 -18.953125 120.14453125 C-17.07051746 119.35888369 -15.18771222 118.57370964 -13.3046875 117.7890625 C-12.42867889 117.42245514 -11.55267029 117.05584778 -10.65011597 116.6781311 C-9.83471344 116.34042694 -9.01931091 116.00272278 -8.17919922 115.65478516 C-7.46641815 115.35835114 -6.75363708 115.06191711 -6.01925659 114.75650024 C-4.03108112 114.01164432 -2.06836041 113.47174024 0 113 C1.20706155 108.63752211 2.09560562 104.54126705 2 100 C-0.11935536 96.84292918 -2.86927539 95.08908947 -6 93 C-12.04165631 86.45487233 -14.55841927 79.2470207 -15.75 70.5625 C-15.87503906 69.76779297 -16.00007813 68.97308594 -16.12890625 68.15429688 C-16.93328435 62.72253484 -17.10988496 57.48875389 -17 52 C-18.134375 52.0825 -19.26875 52.165 -20.4375 52.25 C-28.35994161 52.20808232 -34.59429081 48.18675112 -40.2734375 42.9375 C-46.12464045 36.3714442 -47.35734097 28.97089889 -47.28125 20.4296875 C-46.65507169 12.79379093 -43.54813211 6.30154846 -38 1 C-26.00494861 -7.39419776 -12.32001886 -8.40563159 0 0 Z " fill="#6CD3FE" transform="translate(74,220)"/>
<path d="M0 0 C8.28003711 6.96713482 14.31557523 14.62835423 16.6875 25.3125 C17.60613287 42.85485458 17.72454886 62.81755578 5.58984375 76.71484375 C0.62148637 81.84550681 0.62148637 81.84550681 -2.3125 83.3125 C-1.6525 87.6025 -0.9925 91.8925 -0.3125 96.3125 C0.95787109 96.72008545 2.22824219 97.1276709 3.53710938 97.54760742 C8.8260309 99.31283851 13.95334611 101.39605602 19.09375 103.55078125 C20.05849243 103.95403122 21.02323486 104.35728119 22.01721191 104.77275085 C24.04497026 105.62227399 26.0719374 106.47368795 28.09814453 107.3269043 C31.17494952 108.6197265 34.25722853 109.89883973 37.33984375 111.17773438 C39.32066551 112.00957656 41.30114591 112.84223217 43.28125 113.67578125 C44.19088501 114.05100418 45.10052002 114.42622711 46.03771973 114.81282043 C55.70020467 118.91933186 63.34589017 123.85702022 69.6875 132.3125 C79.60362333 157.10280833 73.6875 185.61252081 73.6875 212.3125 C9.6675 212.3125 -54.3525 212.3125 -120.3125 212.3125 C-120.3125 135.10289779 -120.3125 135.10289779 -110.12060547 124.77783203 C-100.44782822 116.28576938 -85.85404529 112.02636117 -74.10449219 107.14892578 C-71.15566843 105.92428036 -68.21047477 104.69119811 -65.265625 103.45703125 C-63.38301746 102.67138369 -61.50021222 101.88620964 -59.6171875 101.1015625 C-58.74117889 100.73495514 -57.86517029 100.36834778 -56.96261597 99.9906311 C-56.14721344 99.65292694 -55.33181091 99.31522278 -54.49169922 98.96728516 C-53.77891815 98.67085114 -53.06613708 98.37441711 -52.33175659 98.06900024 C-50.34358112 97.32414432 -48.38086041 96.78424024 -46.3125 96.3125 C-45.10578986 91.95129216 -44.22714286 87.85243289 -44.3125 83.3125 C-45.96228562 80.89610204 -47.68507348 79.65163254 -50.07421875 77.98046875 C-58.09217252 72.00548401 -61.03780484 61.90846957 -62.5 52.5 C-64.24049698 37.60908143 -65.49721485 22.92751291 -56.5625 10.0625 C-42.75649214 -6.86546943 -18.9992572 -13.34781475 0 0 Z " fill="#4D618E" transform="translate(438.3125,236.6875)"/>
<path d="M0 0 C31.00232539 -0.03923103 31.00232539 -0.03923103 41.86035156 -0.03125 C42.62118813 -0.03069107 43.3820247 -0.03013214 44.16591692 -0.02955627 C80.40078504 0.00196857 116.63553727 0.24665628 152.86978078 0.44538212 C164.15019415 0.50718103 175.43061769 0.56702438 186.71104217 0.62675762 C209.80737293 0.74910071 232.90368896 0.87398478 256 1 C256 21.79 256 42.58 256 64 C171.52 64 87.04 64 0 64 C0 42.88 0 21.76 0 0 Z " fill="#97583D" transform="translate(256,448)"/>
<path d="M0 0 C0.68835938 0.00451172 1.37671875 0.00902344 2.0859375 0.01367188 C3.76566335 0.02533664 5.44534375 0.04326729 7.125 0.0625 C7.49770704 11.7803754 7.7809861 23.49681526 7.95399475 35.21943665 C8.03708823 40.66471421 8.14951797 46.10590379 8.33203125 51.54882812 C8.50746086 56.81419143 8.60185597 62.07565706 8.64303589 67.34371948 C8.67232847 69.34070182 8.7295369 71.33749912 8.81668091 73.33279419 C9.25695273 83.84327122 8.84125775 91.2823319 1.48655701 99.30326843 C-5.66807426 106.35422443 -5.66807426 106.35422443 -8.875 108.0625 C-12.09373296 107.67330223 -13.65925384 106.64397701 -15.890625 104.33984375 C-16.41914063 103.80166016 -16.94765625 103.26347656 -17.4921875 102.70898438 C-18.03101563 102.14501953 -18.56984375 101.58105469 -19.125 101 C-19.95644531 100.14825195 -19.95644531 100.14825195 -20.8046875 99.27929688 C-22.16834214 97.88037531 -23.52260417 96.47230886 -24.875 95.0625 C-28.23835594 96.51995424 -30.42034005 98.37367854 -32.984375 100.9765625 C-33.73847656 101.73710938 -34.49257812 102.49765625 -35.26953125 103.28125 C-36.04683594 104.0753125 -36.82414062 104.869375 -37.625 105.6875 C-38.41777344 106.48929687 -39.21054688 107.29109375 -40.02734375 108.1171875 C-41.98114493 110.09452846 -43.93012103 112.07638909 -45.875 114.0625 C-41.76170129 118.96723901 -37.48957539 123.5844528 -32.9453125 128.08984375 C-32.31011688 128.72362442 -31.67492126 129.35740509 -31.02047729 130.01039124 C-29.01601284 132.00931406 -27.00807786 134.00470784 -25 136 C-23.62997611 137.36500133 -22.26018226 138.7302336 -20.890625 140.09570312 C-17.55473457 143.42064211 -14.21572964 146.74242353 -10.875 150.0625 C-7.94358448 148.74330338 -5.90817275 147.32849211 -3.67578125 145.0234375 C-3.10666016 144.44335938 -2.53753906 143.86328125 -1.95117188 143.265625 C-1.36916016 142.66234375 -0.78714844 142.0590625 -0.1875 141.4375 C1.89791061 139.29095358 3.99812731 137.16860824 6.125 135.0625 C6.455 135.0625 6.785 135.0625 7.125 135.0625 C7.125 159.8125 7.125 184.5625 7.125 210.0625 C0.69338954 210.0625 -4.87012782 210.02441526 -11.0625 208.875 C-11.78808105 208.7411792 -12.51366211 208.6073584 -13.26123047 208.46948242 C-40.63759037 203.119976 -64.21459969 187.46983548 -80.30395508 164.67895508 C-92.31996495 146.80818724 -98.30138233 126.21849377 -98.1875 104.75 C-98.18331055 103.65985596 -98.17912109 102.56971191 -98.17480469 101.4465332 C-98.05665804 92.97705233 -97.18552161 85.24434708 -94.875 77.0625 C-94.60816406 76.06992188 -94.34132812 75.07734375 -94.06640625 74.0546875 C-89.95712247 60.35707489 -82.99363543 48.02359944 -73.875 37.0625 C-72.77671875 35.73605469 -72.77671875 35.73605469 -71.65625 34.3828125 C-54.36068734 14.34675576 -26.81185615 -0.33774625 0 0 Z " fill="#A2EA41" transform="translate(248.875,-0.0625)"/>
<path d="M0 0 C3.84093825 3.51969614 7.05347878 6.75323422 8 12 C9.2375 11.67 10.475 11.34 11.75 11 C23.01713385 8.57052426 34.12137195 9.62888933 44.31640625 15.28515625 C53.69371833 21.87313088 60.50489491 30.7609983 63 42 C63.91863287 59.54235458 64.03704886 79.50505578 51.90234375 93.40234375 C46.93398637 98.53300681 46.93398637 98.53300681 44 100 C44.66 104.29 45.32 108.58 46 113 C47.381875 113.45375 48.76375 113.9075 50.1875 114.375 C53.50699909 115.47975443 56.77199601 116.64632091 60 118 C55.82222235 122.98592875 51.46872723 127.66704284 46.8515625 132.24609375 C46.19417084 132.90207047 45.53677917 133.55804718 44.85946655 134.23390198 C42.78367138 136.30415268 40.70440573 138.37087651 38.625 140.4375 C37.2067992 141.85067862 35.78882824 143.26408794 34.37109375 144.67773438 C30.91671223 148.12116065 27.4592163 151.56143099 24 155 C20.90820864 153.6238464 18.80361247 152.04841555 16.42480469 149.65185547 C15.40419952 148.63102371 15.40419952 148.63102371 14.36297607 147.58956909 C13.63991272 146.85618317 12.91684937 146.12279724 12.171875 145.3671875 C11.42286926 144.61535187 10.67386353 143.86351624 9.90216064 143.08889771 C7.5133698 140.68892099 5.13163103 138.28207991 2.75 135.875 C1.13066831 134.24563648 -0.48911802 132.61672466 -2.109375 130.98828125 C-6.07820505 126.99741194 -10.04126899 123.00088585 -14 119 C-11.47732009 117.31821339 -9.18908177 116.09893258 -6.4375 114.875 C-5.65246094 114.52179688 -4.86742187 114.16859375 -4.05859375 113.8046875 C-2 113 -2 113 0 113 C1.20706155 108.63752211 2.09560562 104.54126705 2 100 C-0.11935536 96.84292918 -2.86927539 95.08908947 -6 93 C-12.04165631 86.45487233 -14.55841927 79.2470207 -15.75 70.5625 C-15.87503906 69.76779297 -16.00007813 68.97308594 -16.12890625 68.15429688 C-16.93328435 62.72253484 -17.10988496 57.48875389 -17 52 C-18.134375 52.0825 -19.26875 52.165 -20.4375 52.25 C-28.35994161 52.20808232 -34.59429081 48.18675112 -40.2734375 42.9375 C-46.12464045 36.3714442 -47.35734097 28.97089889 -47.28125 20.4296875 C-46.65507169 12.79379093 -43.54813211 6.30154846 -38 1 C-26.00494861 -7.39419776 -12.32001886 -8.40563159 0 0 Z " fill="#FFE2D6" transform="translate(74,220)"/>
<path d="M0 0 C8.28003711 6.96713482 14.31557523 14.62835423 16.6875 25.3125 C17.60613287 42.85485458 17.72454886 62.81755578 5.58984375 76.71484375 C0.62148637 81.84550681 0.62148637 81.84550681 -2.3125 83.3125 C-1.6525 87.6025 -0.9925 91.8925 -0.3125 96.3125 C1.069375 96.76625 2.45125 97.22 3.875 97.6875 C7.19449909 98.79225443 10.45949601 99.95882091 13.6875 101.3125 C9.50972235 106.29842875 5.15622723 110.97954284 0.5390625 115.55859375 C-0.11832916 116.21457047 -0.77572083 116.87054718 -1.45303345 117.54640198 C-3.52882862 119.61665268 -5.60809427 121.68337651 -7.6875 123.75 C-9.1057008 125.16317862 -10.52367176 126.57658794 -11.94140625 127.99023438 C-15.39578777 131.43366065 -18.8532837 134.87393099 -22.3125 138.3125 C-25.40429136 136.9363464 -27.50888753 135.36091555 -29.88769531 132.96435547 C-30.90830048 131.94352371 -30.90830048 131.94352371 -31.94952393 130.90206909 C-33.03411896 129.8019902 -33.03411896 129.8019902 -34.140625 128.6796875 C-34.88963074 127.92785187 -35.63863647 127.17601624 -36.41033936 126.40139771 C-38.7991302 124.00142099 -41.18086897 121.59457991 -43.5625 119.1875 C-45.18183169 117.55813648 -46.80161802 115.92922466 -48.421875 114.30078125 C-52.39070505 110.30991194 -56.35376899 106.31338585 -60.3125 102.3125 C-57.78982009 100.63071339 -55.50158177 99.41143258 -52.75 98.1875 C-51.96496094 97.83429688 -51.17992187 97.48109375 -50.37109375 97.1171875 C-48.3125 96.3125 -48.3125 96.3125 -46.3125 96.3125 C-45.10578986 91.95129216 -44.22714286 87.85243289 -44.3125 83.3125 C-45.96228562 80.89610204 -47.68507348 79.65163254 -50.07421875 77.98046875 C-58.09217252 72.00548401 -61.03780484 61.90846957 -62.5 52.5 C-64.24049698 37.60908143 -65.49721485 22.92751291 -56.5625 10.0625 C-42.75649214 -6.86546943 -18.9992572 -13.34781475 0 0 Z " fill="#FEE2D6" transform="translate(438.3125,236.6875)"/>
<path d="M0 0 C3.84093825 3.51969614 7.05347878 6.75323422 8 12 C9.2375 11.67 10.475 11.34 11.75 11 C23.01713385 8.57052426 34.12137195 9.62888933 44.31640625 15.28515625 C53.55433363 21.77520699 60.76301313 30.79355615 63 42 C63.06548492 43.58211573 63.08578381 45.16670081 63.0625 46.75 C63.05347656 47.54921875 63.04445313 48.3484375 63.03515625 49.171875 C63.02355469 49.77515625 63.01195312 50.3784375 63 51 C60.06643373 49.6187244 57.51331387 48.00394678 54.875 46.125 C41.69219149 37.27892555 26.21150375 35.28433418 10.69140625 37.46484375 C1.92762294 39.39082474 -6.1541415 43.08264795 -12.625 49.375 C-15.1931712 51.69858346 -16.89948266 52.4572164 -20.375 52.625 C-29.05579924 51.96178104 -36.287467 47.41044427 -42 41 C-46.89793469 33.29920096 -47.74045793 26.02947315 -47 17 C-44.96310861 8.87457455 -41.01437903 2.60862742 -33.75 -1.75 C-22.34053 -7.59617471 -10.72716633 -7.31886933 0 0 Z " fill="#FF9F3D" transform="translate(74,220)"/>
<path d="M0 0 C0.60328125 0.20496094 1.2065625 0.40992188 1.828125 0.62109375 C2.62734375 0.89050781 3.4265625 1.15992188 4.25 1.4375 C5.03890625 1.70433594 5.8278125 1.97117187 6.640625 2.24609375 C16.55214169 5.41318435 26.31788765 4.95332597 35.890625 0.875 C38 0 38 0 40 0 C40.50512244 1.60256108 41.00391627 3.20711792 41.5 4.8125 C41.7784375 5.70582031 42.056875 6.59914063 42.34375 7.51953125 C43 10 43 10 43 13 C43.59167969 13.19335938 44.18335938 13.38671875 44.79296875 13.5859375 C48.9146645 14.94414719 52.9950524 16.32050585 57 18 C52.82222235 22.98592875 48.46872723 27.66704284 43.8515625 32.24609375 C43.19417084 32.90207047 42.53677917 33.55804718 41.85946655 34.23390198 C39.78367138 36.30415268 37.70440573 38.37087651 35.625 40.4375 C34.2067992 41.85067862 32.78882824 43.26408794 31.37109375 44.67773438 C27.91671223 48.12116065 24.4592163 51.56143099 21 55 C17.90820864 53.6238464 15.80361247 52.04841555 13.42480469 49.65185547 C12.74440125 48.97130096 12.0639978 48.29074646 11.36297607 47.58956909 C10.63991272 46.85618317 9.91684937 46.12279724 9.171875 45.3671875 C8.42286926 44.61535187 7.67386353 43.86351624 6.90216064 43.08889771 C4.5133698 40.68892099 2.13163103 38.28207991 -0.25 35.875 C-1.86933169 34.24563648 -3.48911802 32.61672466 -5.109375 30.98828125 C-9.07820505 26.99741194 -13.04126899 23.00088585 -17 19 C-14.47732009 17.31821339 -12.18908177 16.09893258 -9.4375 14.875 C-8.65246094 14.52179688 -7.86742187 14.16859375 -7.05859375 13.8046875 C-5 13 -5 13 -3 13 C-2.86722656 12.31292969 -2.73445313 11.62585938 -2.59765625 10.91796875 C-2.42105469 10.01691406 -2.24445313 9.11585938 -2.0625 8.1875 C-1.80146484 6.84751953 -1.80146484 6.84751953 -1.53515625 5.48046875 C-1 3 -1 3 0 0 Z " fill="#FCD3C8" transform="translate(395,320)"/>
<path d="M0 0 C0.60328125 0.20496094 1.2065625 0.40992188 1.828125 0.62109375 C2.62734375 0.89050781 3.4265625 1.15992188 4.25 1.4375 C5.03890625 1.70433594 5.8278125 1.97117187 6.640625 2.24609375 C16.55214169 5.41318435 26.31788765 4.95332597 35.890625 0.875 C38 0 38 0 40 0 C40.50512244 1.60256108 41.00391627 3.20711792 41.5 4.8125 C41.7784375 5.70582031 42.056875 6.59914063 42.34375 7.51953125 C43 10 43 10 43 13 C43.59167969 13.19335938 44.18335938 13.38671875 44.79296875 13.5859375 C48.9146645 14.94414719 52.9950524 16.32050585 57 18 C52.82222235 22.98592875 48.46872723 27.66704284 43.8515625 32.24609375 C43.19417084 32.90207047 42.53677917 33.55804718 41.85946655 34.23390198 C39.78367138 36.30415268 37.70440573 38.37087651 35.625 40.4375 C34.2067992 41.85067862 32.78882824 43.26408794 31.37109375 44.67773438 C27.91671223 48.12116065 24.4592163 51.56143099 21 55 C17.90820864 53.6238464 15.80361247 52.04841555 13.42480469 49.65185547 C12.74440125 48.97130096 12.0639978 48.29074646 11.36297607 47.58956909 C10.63991272 46.85618317 9.91684937 46.12279724 9.171875 45.3671875 C8.42286926 44.61535187 7.67386353 43.86351624 6.90216064 43.08889771 C4.5133698 40.68892099 2.13163103 38.28207991 -0.25 35.875 C-1.86933169 34.24563648 -3.48911802 32.61672466 -5.109375 30.98828125 C-9.07820505 26.99741194 -13.04126899 23.00088585 -17 19 C-14.47732009 17.31821339 -12.18908177 16.09893258 -9.4375 14.875 C-8.65246094 14.52179688 -7.86742188 14.16859375 -7.05859375 13.8046875 C-5 13 -5 13 -3 13 C-2.86722656 12.22914063 -2.73445313 11.45828125 -2.59765625 10.6640625 C-2.42105469 9.66117187 -2.24445313 8.65828125 -2.0625 7.625 C-1.80146484 6.12839844 -1.80146484 6.12839844 -1.53515625 4.6015625 C-1 2 -1 2 0 0 Z " fill="#FDD5C9" transform="translate(77,320)"/>
<path d="M0 0 C3.76672156 3.18402088 7.49002591 6.36161906 10.96484375 9.8671875 C11.94614258 10.85332031 11.94614258 10.85332031 12.94726562 11.859375 C13.93243164 12.85710937 13.93243164 12.85710937 14.9375 13.875 C15.62134766 14.56335938 16.30519531 15.25171875 17.00976562 15.9609375 C18.67551593 17.63833641 20.33840361 19.31848946 22 21 C16.75498729 27.35520247 10.99520535 33.15092415 5.16796875 38.96484375 C4.12504228 40.0084449 3.08226421 41.05219437 2.03962708 42.09608459 C-0.13138689 44.26856386 -2.30417701 46.43924625 -4.47827148 48.60864258 C-7.27052921 51.39516082 -10.05821587 54.18620245 -12.84462452 56.97856808 C-14.98999631 59.12754077 -17.13772829 61.2741418 -19.28619957 63.42001534 C-20.31603157 64.44917896 -21.34511768 65.4790895 -22.37345314 66.50974846 C-23.80230231 67.94112097 -25.23467696 69.36897164 -26.66723633 70.79663086 C-27.88918449 72.01738564 -27.88918449 72.01738564 -29.13581848 73.26280212 C-31 75 -31 75 -32 75 C-37.28736863 39.18824555 -37.28736863 39.18824555 -28.859375 26.82275391 C-20.74357963 16.4808727 -10.38474171 7.97239521 0 0 Z " fill="#1CC26D" transform="translate(288,59)"/>
<path d="M0 0 C8.16058314 6.86662176 14.56062725 14.65768553 16.6875 25.3125 C16.75298492 26.89461573 16.77328381 28.47920081 16.75 30.0625 C16.74097656 30.86171875 16.73195313 31.6609375 16.72265625 32.484375 C16.71105469 33.08765625 16.69945312 33.6909375 16.6875 34.3125 C13.75393373 32.9312244 11.20081387 31.31644678 8.5625 29.4375 C-4.62030851 20.59142555 -20.10099625 18.59683418 -35.62109375 20.77734375 C-45.55415991 22.96029327 -53.71169276 27.68615523 -61.3125 34.3125 C-61.9725 34.3125 -62.6325 34.3125 -63.3125 34.3125 C-63.96375895 24.38080109 -61.33954342 15.91977937 -55.0078125 8.15625 C-40.81381347 -7.28054158 -18.26362002 -12.83099723 0 0 Z " fill="#BE7C49" transform="translate(438.3125,236.6875)"/>
<path d="M0 0 C8.16058314 6.86662176 14.56062725 14.65768553 16.6875 25.3125 C16.75298492 26.89461573 16.77328381 28.47920081 16.75 30.0625 C16.74097656 30.86171875 16.73195313 31.6609375 16.72265625 32.484375 C16.71105469 33.08765625 16.69945312 33.6909375 16.6875 34.3125 C13.75393373 32.9312244 11.20081387 31.31644678 8.5625 29.4375 C-4.62030851 20.59142555 -20.10099625 18.59683418 -35.62109375 20.77734375 C-44.9751259 22.83304132 -52.99811302 27.17785285 -60.3125 33.3125 C-60.9725 33.3125 -61.6325 33.3125 -62.3125 33.3125 C-62.81401378 22.78071055 -60.4424485 15.18969201 -53.3125 7.3125 C-39.05656671 -7.38039676 -17.84784177 -12.53889471 0 0 Z " fill="#FFBA16" transform="translate(120.3125,236.6875)"/>
</svg>
